<svg width="139" height="169" viewBox="0 0 139 169" fill="none" xmlns="http://www.w3.org/2000/svg">
<path d="M127.599 145.846C127.527 146.056 127.125 147.222 126.393 149.343C125.661 151.464 125.19 152.915 124.98 153.696L122.134 145.846H119.377L123.729 156.473C123.493 157.15 123.362 157.521 123.335 157.586C123.099 158.19 122.801 158.611 122.439 158.847C122.078 159.083 121.599 159.201 121.002 159.201C120.536 159.201 120.152 159.185 119.85 159.152L119.978 161.152C120.422 161.203 120.869 161.229 121.317 161.23C122.433 161.23 123.345 160.969 124.054 160.448C124.763 159.925 125.351 159.057 125.817 157.843C125.843 157.777 127.356 153.778 130.356 145.846H127.599ZM115.265 147.501L114.93 145.846H112.764V156.67H115.344V150.8C115.344 149.901 115.578 149.198 116.048 148.693C116.517 148.187 117.228 147.934 118.179 147.934C118.461 147.934 118.734 147.954 118.997 147.993L119.036 145.836C118.859 145.81 118.629 145.797 118.347 145.797C117.001 145.797 115.974 146.365 115.265 147.501ZM109.873 154.848C109.237 154.848 108.8 154.674 108.564 154.326C108.328 153.978 108.209 153.394 108.209 152.573V147.412H110.898V145.846H108.209L107.874 142.901L106.298 142.911L105.807 145.846L103.956 146.014L103.857 147.412H105.629V152.524C105.629 153.272 105.687 153.901 105.802 154.41C105.916 154.919 106.112 155.36 106.388 155.735C106.663 156.109 107.046 156.383 107.535 156.557C108.024 156.731 108.636 156.818 109.371 156.818C109.555 156.818 109.752 156.808 109.962 156.789C110.172 156.769 110.344 156.748 110.479 156.725C110.613 156.701 110.755 156.675 110.902 156.646C111.05 156.616 111.131 156.602 111.144 156.602L111.075 154.75C110.677 154.813 110.276 154.846 109.873 154.848ZM98.9384 145.58C97.5923 145.58 96.3683 146.125 95.2653 147.215L94.9799 145.846H92.9022V156.67H95.4819V151.401C95.4819 150.337 95.5444 149.549 95.669 149.037C95.8791 148.604 96.2155 148.245 96.6784 147.959C97.1413 147.673 97.6516 147.53 98.2096 147.53C98.9249 147.53 99.4208 147.747 99.6963 148.18C99.9721 148.614 100.113 149.267 100.12 150.141V156.67H102.71V149.825C102.71 148.446 102.396 147.394 101.769 146.668C101.142 145.943 100.199 145.58 98.9384 145.58ZM88.1704 152.632C88.1704 153.447 88.0045 154.032 87.673 154.39C87.3414 154.748 86.8148 154.927 86.0927 154.927C85.3575 154.927 84.8206 154.746 84.4827 154.385C84.1444 154.024 83.9756 153.44 83.9756 152.632V145.846H81.386V152.731C81.386 154.09 81.8143 155.121 82.6708 155.823C83.5274 156.526 84.6582 156.877 86.0632 156.877C87.4679 156.877 88.6003 156.524 89.4605 155.818C90.3202 155.113 90.7501 154.083 90.7501 152.731V145.846H88.1704V152.632ZM76.5065 153.962C76.0667 154.599 75.41 154.917 74.5371 154.917C73.6574 154.917 72.9943 154.599 72.5481 153.962C72.1015 153.325 71.8786 152.416 71.8786 151.234C71.8786 150.032 72.0999 149.115 72.5433 148.481C72.9863 147.847 73.6443 147.53 74.5175 147.53C75.4036 147.53 76.0667 147.845 76.5065 148.476C76.9464 149.106 77.1661 150.022 77.1661 151.224C77.1661 152.412 76.9464 153.325 76.5065 153.962ZM74.5765 145.58C72.9024 145.58 71.606 146.084 70.6869 147.092C69.7679 148.1 69.3085 149.477 69.3085 151.224C69.3085 152.918 69.7679 154.284 70.6869 155.321C71.606 156.358 72.8665 156.877 74.4682 156.877C76.1356 156.877 77.4323 156.367 78.3578 155.346C79.2836 154.325 79.7461 152.951 79.7461 151.224C79.7461 149.517 79.2884 148.149 78.3725 147.122C77.4567 146.094 76.1913 145.58 74.5765 145.58ZM64.6475 144.192C65.7831 144.192 66.9123 144.536 68.0348 145.226L68.8719 143.207C67.7033 142.425 66.2755 142.034 64.5883 142.034C62.5009 142.034 60.8121 142.706 59.5221 144.049C58.2321 145.392 57.5872 147.173 57.5872 149.392C57.5872 151.729 58.2042 153.562 59.4385 154.888C60.6724 156.214 62.3433 156.877 64.4505 156.877C66.1112 156.877 67.4931 156.549 68.5961 155.892L68.2414 153.804C67.0533 154.409 65.8552 154.71 64.6475 154.71C63.2688 154.71 62.2069 154.254 61.4621 153.341C60.717 152.429 60.3444 151.138 60.3444 149.47C60.3444 147.862 60.7298 146.58 61.5015 145.624C62.2725 144.669 63.3213 144.192 64.6475 144.192ZM56.953 145.846H53.8806C53.4602 146.278 53.0385 146.708 52.6152 147.136C52.0733 147.685 51.5381 148.239 51.01 148.801C50.6071 149.231 50.2148 149.671 49.8334 150.121L49.622 150.328L49.4198 150.524L49.4791 148.338V142.241H46.8991V156.67H49.4791V152.603L50.5522 151.755L54.117 156.67H57.2384L52.5022 150.456L56.953 145.846ZM42.3852 147.54C43.153 147.54 43.9834 147.773 44.8761 148.24L45.487 146.398C44.6138 145.853 43.5435 145.58 42.2766 145.58C40.6947 145.58 39.4195 146.069 38.4514 147.048C37.483 148.026 36.9987 149.402 36.9987 151.175C36.9987 153.006 37.4599 154.415 38.3822 155.4C39.3045 156.385 40.5929 156.877 42.2471 156.877C42.9166 156.877 43.4942 156.811 43.9801 156.68C44.4661 156.549 44.9354 156.332 45.3884 156.03L45.1423 154.07C44.2691 154.628 43.36 154.907 42.4146 154.907C41.5087 154.907 40.8078 154.592 40.3123 153.962C39.8167 153.332 39.5687 152.412 39.5687 151.204C39.5687 150.009 39.8199 149.1 40.3222 148.476C40.8245 147.852 41.5119 147.54 42.3852 147.54ZM32.8688 153.578C32.6782 153.985 32.3617 154.331 31.9184 154.617C31.4754 154.902 30.9551 155.045 30.3577 155.045C29.8589 155.045 29.4748 154.922 29.2057 154.676C28.9363 154.43 28.8021 154.077 28.8021 153.617C28.8021 152.947 29.0446 152.461 29.5306 152.159C30.0165 151.858 30.7812 151.661 31.8248 151.568C31.8511 151.568 32.027 151.556 32.3518 151.529C32.6766 151.503 32.849 151.49 32.8688 151.49V153.578ZM31.2735 145.58C29.7897 145.58 28.4113 145.853 27.1379 146.398C27.1444 146.411 27.2526 146.706 27.4628 147.284C27.6729 147.862 27.7812 148.161 27.7876 148.18C29.0808 147.688 30.1674 147.442 31.0471 147.442C31.664 147.442 32.1237 147.591 32.4258 147.89C32.7276 148.189 32.8788 148.666 32.8788 149.323V149.894C32.646 149.92 32.4128 149.943 32.1795 149.963C31.6927 150.006 31.2069 150.059 30.7222 150.121C29.2384 150.265 28.1291 150.608 27.3939 151.15C26.6587 151.692 26.291 152.524 26.291 153.647C26.291 154.691 26.6011 155.49 27.2216 156.045C27.8421 156.6 28.6544 156.877 29.6587 156.877C30.3939 156.877 31.0192 156.754 31.5346 156.508C32.0497 156.262 32.5767 155.876 33.1148 155.351C33.1148 155.377 33.1837 155.597 33.3218 156.011C33.4595 156.424 33.5316 156.644 33.5383 156.67H35.4485V149.609C35.4485 148.19 35.117 147.164 34.4542 146.531C33.7911 145.897 32.7308 145.58 31.2735 145.58ZM24.0694 154.848C23.4063 154.848 22.9601 154.676 22.7301 154.331C22.5004 153.986 22.3857 153.328 22.3857 152.356V142.241H19.8057V152.406C19.8057 153.187 19.8614 153.841 19.9732 154.366C20.0847 154.891 20.2817 155.344 20.5639 155.725C20.8461 156.106 21.2318 156.383 21.721 156.557C22.2098 156.731 22.8252 156.818 23.5671 156.818C23.751 156.818 23.9512 156.807 24.1677 156.784C24.3473 156.765 24.5263 156.742 24.7046 156.715C24.8456 156.692 24.9933 156.664 25.1477 156.631C25.3017 156.598 25.3822 156.582 25.3889 156.582L25.32 154.74C24.8145 154.812 24.3974 154.848 24.0694 154.848ZM12.7521 154.74H10.438V150.062H12.6832C13.7532 150.062 14.5441 150.239 15.0563 150.594C15.5682 150.948 15.8242 151.529 15.8242 152.337C15.8242 153.939 14.8 154.74 12.7521 154.74ZM10.438 144.202H12.1809C13.2903 144.202 14.0995 144.343 14.6082 144.625C15.1169 144.907 15.3715 145.426 15.3715 146.181C15.3715 147.527 14.4883 148.2 12.7226 148.2H10.438V144.202ZM15.7947 148.968C16.1557 148.857 16.4709 148.701 16.74 148.5C17.0091 148.3 17.2192 148.095 17.3705 147.885C17.5245 147.668 17.6471 147.431 17.7347 147.181C17.8263 146.922 17.8856 146.69 17.9118 146.486C17.9381 146.283 17.9512 146.076 17.9512 145.866C17.9512 144.566 17.4819 143.637 16.543 143.079C15.6041 142.521 14.1799 142.241 12.2697 142.241H7.76953V156.67H13.1163C14.8164 156.67 16.1477 156.313 17.1094 155.597C18.071 154.881 18.5519 153.844 18.5519 152.485C18.5519 151.585 18.3155 150.828 17.843 150.214C17.3705 149.601 16.6875 149.185 15.7947 148.968ZM93.194 56.0948C92.2855 54.7474 91.2465 53.4927 90.0918 52.3491C87.145 49.4343 82.0407 45.9596 74.4564 45.9596C67.7705 45.9596 62.9699 48.8286 58.3279 51.603C53.9985 54.1901 49.909 56.634 44.5577 56.634C42.3628 56.634 40.5842 56.0721 39.2724 54.9643C39.2382 54.9358 39.2071 54.907 39.1744 54.8785V9.99243H93.194V56.0948ZM93.194 64.0783C93.183 64.1141 93.1736 64.1503 93.1658 64.1869C92.9278 65.3459 91.0891 66.8422 89.1424 68.4266C85.4389 71.4404 80.8302 75.1913 80.8513 81.0468C80.8603 83.5102 81.902 85.7333 83.7094 87.1464C85.3957 88.4646 87.475 88.9053 89.5024 88.9053C90.7927 88.905 92.061 88.7256 93.194 88.4812V92.2109C83.3359 91.9822 77.7059 88.0161 77.7059 81.2479C77.7059 78.065 79.5815 75.3152 81.3956 72.6558C83.1536 70.0783 84.9715 67.4134 84.9715 64.4109C84.9715 58.5387 80.3154 54.4374 73.6485 54.4374C66.7858 54.4374 61.6623 57.2295 56.7069 59.9299C52.0201 62.484 47.5926 64.8965 41.9482 64.8965C40.9632 64.8965 40.031 64.7642 39.1744 64.5605V56.1666C40.335 56.9646 42.0555 57.6443 44.5577 57.6443C50.188 57.6443 54.3934 55.1309 58.8459 52.4702C63.3707 49.7659 68.0492 46.9699 74.4564 46.9699C80.2561 46.9699 85.2682 49.0121 89.3535 53.0401C91.2726 54.932 92.5239 56.8419 93.194 58.0117V64.0783ZM93.194 71.9702C92.5424 72.5081 91.9152 72.9931 91.3085 73.4621C88.6856 75.4895 86.6136 77.0909 86.6136 80.0652C86.6136 81.4315 87.1345 82.4893 88.1198 83.1242C88.912 83.6345 89.9125 83.826 90.9235 83.826C91.7048 83.826 92.4918 83.711 93.194 83.5409V86.2014C89.6536 87.056 86.8474 86.7786 85.0779 85.3951C83.8106 84.4042 83.0799 82.8166 83.0735 81.0388C83.0562 76.2452 87.0345 73.0072 90.5448 70.1504C91.5132 69.3624 92.4249 68.6185 93.194 67.8814V71.9702ZM93.194 82.4963C91.7339 82.8871 89.8183 83.0165 88.6666 82.2746C87.9648 81.8226 87.6239 81.0996 87.6239 80.0652C87.6239 77.5868 89.4284 76.192 91.9261 74.2616C92.3512 73.9342 92.7738 73.6036 93.194 73.2699V82.4963ZM93.194 95.8827C93.149 95.8864 93.1047 95.8963 93.0624 95.9121C85.4466 98.8519 80.5246 93.6057 80.3042 93.36C80.2321 93.2591 80.1255 93.1882 80.0047 93.1607C79.905 93.1384 79.8008 93.1468 79.706 93.1848C79.6111 93.2227 79.53 93.2885 79.4732 93.3735C79.4154 93.4619 79.3874 93.5665 79.3931 93.672H79.3896C79.3896 93.6861 79.3528 95.1196 78.0964 97.2323C77.4086 98.389 76.2499 99.9033 74.3241 101.527H66.0904C67.2551 100.976 68.5041 100.3 69.6974 99.4862C73.7346 96.7322 75.7816 93.3927 75.7816 89.5598C75.7816 86.0703 74.6623 84.5391 73.675 83.1876C72.9005 82.1279 72.2316 81.2127 72.2316 79.4223C72.2316 77.5848 73.2231 76.4214 74.2725 75.189C75.4321 73.8276 76.6315 72.42 76.6315 70.0645C76.6315 66.61 73.5248 63.1135 67.5879 63.1135C63.5417 63.1135 60.3194 64.6636 56.9078 66.305C52.9401 68.2139 48.8371 70.1879 42.7942 70.1879C41.4232 70.1879 40.1905 70.0844 39.1744 69.9524V65.598C40.0851 65.8009 41.0152 65.9044 41.9482 65.9068C47.8499 65.9068 52.3868 63.4345 57.1903 60.817C62.0342 58.1774 67.043 55.4477 73.6485 55.4477C76.7071 55.4477 79.313 56.3325 81.1841 58.0063C83.0011 59.6317 83.9615 61.8462 83.9615 64.4109C83.9615 67.1014 82.3098 69.5229 80.5611 72.0865C78.6608 74.8725 76.6955 77.7533 76.6955 81.2479C76.6955 88.6523 82.6942 92.9852 93.194 93.221V95.8827ZM93.194 101.527H75.8601C78.9177 98.678 79.9172 96.0957 80.2407 94.691C80.9022 95.2641 82.0049 96.0823 83.5165 96.746C85.6516 97.6833 89.0498 98.464 93.194 96.9404V101.527ZM39.1744 101.527V98.0293C41.7592 98.957 45.6786 99.919 50.8204 99.919C58.9199 99.919 69.6878 98.9666 69.6878 90.7297C69.6878 87.5804 67.7119 86.1885 66.124 85.0699C64.7276 84.0862 63.8672 83.4157 63.7788 82.0811C63.7205 81.2008 64.135 80.4032 64.6152 79.4793C65.1534 78.4437 65.7633 77.2696 65.7633 75.7849C65.7633 73.7696 64.2692 71.6009 60.9889 71.6009C58.3823 71.6009 55.9785 72.6205 53.4331 73.7001C50.1598 75.0881 46.4493 76.6616 41.2057 76.6616C40.5262 76.663 39.8475 76.6171 39.1744 76.5242V70.974C40.3753 71.1229 41.5842 71.1976 42.7942 71.1979C49.0675 71.1979 53.4654 69.0824 57.3457 67.2154C60.6503 65.6256 63.7721 64.1235 67.5879 64.1235C72.862 64.1235 75.6214 67.1123 75.6214 70.0645C75.6214 72.0478 74.5925 73.2554 73.5037 74.5339C72.3818 75.8512 71.2216 77.2129 71.2216 79.4223C71.2216 81.5423 72.0544 82.6821 72.8595 83.7837C73.7997 85.0702 74.7716 86.4003 74.7716 89.5598C74.7716 95.5892 69.065 99.3212 63.5039 101.527H39.1744ZM39.1744 93.064C41.6651 93.9613 44.2924 94.4207 46.9398 94.4219C51.5216 94.4219 59.2082 93.4109 59.2082 86.6393C59.2082 84.6471 57.6087 81.8415 54.0526 81.8415C51.659 81.8415 49.7725 82.471 47.9485 83.0796C46.0931 83.6985 44.3409 84.2835 42.0424 84.2835C41.0385 84.2835 40.0765 84.1108 39.1744 83.8353V78.7659C39.8486 78.8452 40.5269 78.8847 41.2057 78.8842C46.9013 78.8842 51.0039 77.1444 54.3006 75.7464C56.7332 74.7146 58.834 73.8234 60.9889 73.8234C62.8706 73.8234 63.5411 74.8366 63.5411 75.7849C63.5411 76.7263 63.1048 77.5656 62.6432 78.4546C62.0896 79.52 61.4621 80.7277 61.5614 82.2282C61.7248 84.6894 63.3822 85.857 64.8442 86.8869C66.3088 87.9187 67.4656 88.7336 67.4656 90.7297C67.4656 93.7204 65.7402 97.6964 50.8204 97.6964C45.455 97.6964 41.5026 96.5644 39.1744 95.6427V93.064ZM39.1744 84.8966C40.0823 85.1458 41.0417 85.2938 42.0424 85.2938C44.5049 85.2938 46.4179 84.6554 48.2685 84.0378C50.0961 83.4279 51.8227 82.8519 54.0526 82.8519C57.1849 82.8519 58.1981 85.4037 58.1981 86.6393C58.1981 91.0699 54.305 93.4116 46.9398 93.4116C43.7838 93.4116 41.1093 92.7084 39.1744 91.9739V84.8966ZM95.4162 7.76992H36.9522V103.75H95.4162V7.76992ZM45.6341 88.9752C45.6341 87.575 48.6084 86.9224 50.6182 86.9224C51.1888 86.9224 52.1456 87.0371 52.1456 87.8047C52.1456 89.3055 49.0518 90.1242 47.4622 90.1242C46.6188 90.1242 45.6341 89.8231 45.6341 88.9752ZM53.156 87.8047C53.156 86.8898 52.4893 85.9124 50.6182 85.9124C48.545 85.9124 44.624 86.5524 44.624 88.9752C44.624 90.2668 45.7648 91.1346 47.4622 91.1346C49.4474 91.1346 53.156 90.1579 53.156 87.8047Z" fill="#292929"/>
</svg>
