<svg width="224" height="67" viewBox="0 0 224 67" fill="none" xmlns="http://www.w3.org/2000/svg">
<path d="M215.566 66.0741H8.31161C4.00523 66.0741 0.5 62.5589 0.5 58.2558V7.80665C0.5 3.50193 4.00523 0 8.31161 0H215.566C219.871 0 223.5 3.50193 223.5 7.80665V58.2558C223.5 62.5589 219.871 66.0741 215.566 66.0741Z" fill="#A6A6A6"/>
<path d="M221.901 58.2574C221.901 61.7528 219.07 64.584 215.568 64.584H8.31161C4.81134 64.584 1.97015 61.7528 1.97015 58.2574V7.80494C1.97015 4.31128 4.81134 1.47009 8.31161 1.47009H215.566C219.07 1.47009 221.899 4.31128 221.899 7.80494L221.901 58.2574Z" fill="black"/>
<path d="M50.267 32.6802C50.2191 27.3562 54.6262 24.7661 54.8278 24.6456C52.3318 21.0065 48.4632 20.5093 47.1037 20.4697C43.8545 20.1277 40.7028 22.4139 39.0476 22.4139C37.3594 22.4139 34.8106 20.5027 32.0636 20.5589C28.5286 20.6134 25.2216 22.66 23.4079 25.8382C19.6648 32.3184 22.4564 41.8413 26.0426 47.0793C27.8365 49.6447 29.9327 52.509 32.6764 52.4082C35.3607 52.2975 36.3634 50.6969 39.6026 50.6969C42.8122 50.6969 43.7537 52.4082 46.552 52.3438C49.4328 52.2975 51.2465 49.7669 52.9777 47.1785C55.0508 44.2382 55.8833 41.3425 55.9163 41.1938C55.8486 41.1707 50.3215 39.0613 50.267 32.6802Z" fill="white"/>
<path d="M44.9811 17.024C46.4248 15.2185 47.4126 12.7622 47.1384 10.2695C45.0488 10.362 42.4356 11.7149 40.9307 13.4807C39.5993 15.0368 38.41 17.5872 38.7173 19.9857C41.0645 20.1608 43.4746 18.8013 44.9811 17.024Z" fill="white"/>
<path d="M89.1136 52.04H85.3622L83.3073 45.5829H76.1647L74.2073 52.04H70.555L77.6316 30.0571H82.0024L89.1136 52.04ZM82.6879 42.8738L80.8295 37.1337C80.633 36.5473 80.2646 35.1663 79.7211 32.9925H79.6551C79.4387 33.9274 79.0901 35.3084 78.6111 37.1337L76.7858 42.8738H82.6879Z" fill="white"/>
<path d="M107.312 43.9195C107.312 46.6153 106.584 48.7462 105.127 50.3105C103.822 51.703 102.201 52.3984 100.267 52.3984C98.179 52.3984 96.6791 51.6485 95.7656 50.1486H95.6995V58.4987H92.1778V41.407C92.1778 39.7122 92.1332 37.9728 92.0473 36.1888H95.1445L95.3411 38.7013H95.4072C96.5816 36.8083 98.364 35.8634 100.756 35.8634C102.626 35.8634 104.187 36.6018 105.436 38.0802C106.688 39.5602 107.312 41.5061 107.312 43.9195ZM103.724 44.0483C103.724 42.5055 103.377 41.2336 102.68 40.2326C101.919 39.1886 100.896 38.6666 99.6144 38.6666C98.7456 38.6666 97.956 38.9573 97.2506 39.5305C96.5436 40.1087 96.0811 40.8636 95.8647 41.7985C95.7557 42.2346 95.7012 42.5914 95.7012 42.8722V45.5152C95.7012 46.6682 96.0547 47.6411 96.7617 48.4356C97.4687 49.2302 98.3871 49.6266 99.517 49.6266C100.843 49.6266 101.876 49.1146 102.614 48.0937C103.354 47.0712 103.724 45.7233 103.724 44.0483Z" fill="white"/>
<path d="M125.544 43.9195C125.544 46.6153 124.815 48.7462 123.356 50.3105C122.053 51.703 120.433 52.3984 118.498 52.3984C116.41 52.3984 114.911 51.6485 113.999 50.1486H113.933V58.4987H110.411V41.407C110.411 39.7122 110.366 37.9728 110.28 36.1888H113.378L113.574 38.7013H113.64C114.813 36.8083 116.595 35.8634 118.989 35.8634C120.857 35.8634 122.418 36.6018 123.67 38.0802C124.917 39.5602 125.544 41.5061 125.544 43.9195ZM121.956 44.0483C121.956 42.5055 121.607 41.2336 120.91 40.2326C120.149 39.1886 119.129 38.6666 117.846 38.6666C116.975 38.6666 116.187 38.9573 115.48 39.5305C114.773 40.1087 114.313 40.8636 114.096 41.7985C113.989 42.2346 113.933 42.5914 113.933 42.8722V45.5152C113.933 46.6682 114.286 47.6411 114.99 48.4356C115.697 49.2285 116.615 49.6266 117.748 49.6266C119.075 49.6266 120.107 49.1146 120.846 48.0937C121.586 47.0712 121.956 45.7233 121.956 44.0483Z" fill="white"/>
<path d="M145.927 45.8752C145.927 47.7451 145.278 49.2665 143.975 50.4409C142.543 51.7244 140.549 52.3653 137.987 52.3653C135.621 52.3653 133.725 51.9094 132.29 50.996L133.106 48.0606C134.652 48.9956 136.348 49.4647 138.197 49.4647C139.523 49.4647 140.556 49.1641 141.297 48.5661C142.036 47.9681 142.404 47.1653 142.404 46.1643C142.404 45.2723 142.1 44.5207 141.49 43.9112C140.884 43.3016 139.872 42.7351 138.458 42.2114C134.609 40.776 132.686 38.6732 132.686 35.908C132.686 34.1008 133.36 32.6191 134.71 31.4661C136.054 30.3115 137.848 29.735 140.091 29.735C142.092 29.735 143.754 30.0835 145.08 30.779L144.2 33.6499C142.961 32.9759 141.56 32.6389 139.992 32.6389C138.753 32.6389 137.785 32.9445 137.092 33.5524C136.505 34.0959 136.211 34.7583 136.211 35.5429C136.211 36.4118 136.546 37.1303 137.22 37.6953C137.807 38.2172 138.872 38.7822 140.418 39.3917C142.31 40.1532 143.699 41.0436 144.593 42.0644C145.483 43.0819 145.927 44.3555 145.927 45.8752Z" fill="white"/>
<path d="M157.571 38.8317H153.689V46.5277C153.689 48.4851 154.373 49.463 155.744 49.463C156.374 49.463 156.896 49.4085 157.309 49.2995L157.406 51.9738C156.712 52.2332 155.799 52.3636 154.667 52.3636C153.276 52.3636 152.19 51.9391 151.405 51.0917C150.624 50.2427 150.23 48.8188 150.23 46.8184V38.8284H147.918V36.1854H150.23V33.2831L153.689 32.2391V36.1854H157.571V38.8317Z" fill="white"/>
<path d="M175.086 43.9838C175.086 46.4203 174.389 48.4207 172.998 49.985C171.539 51.5956 169.603 52.3984 167.19 52.3984C164.864 52.3984 163.012 51.627 161.632 50.0841C160.251 48.5413 159.56 46.5938 159.56 44.2465C159.56 41.7902 160.27 39.7782 161.696 38.2139C163.118 36.648 165.038 35.865 167.451 35.865C169.777 35.865 171.648 36.6364 173.061 38.1809C174.412 39.6791 175.086 41.6134 175.086 43.9838ZM171.432 44.0978C171.432 42.6359 171.12 41.3822 170.487 40.3366C169.749 39.0712 168.693 38.4402 167.325 38.4402C165.91 38.4402 164.834 39.0729 164.096 40.3366C163.463 41.3838 163.151 42.6574 163.151 44.1639C163.151 45.6258 163.463 46.8795 164.096 47.9235C164.858 49.1888 165.921 49.8198 167.294 49.8198C168.639 49.8198 169.694 49.1756 170.456 47.8905C171.105 46.825 171.432 45.5581 171.432 44.0978Z" fill="white"/>
<path d="M186.533 39.286C186.185 39.2216 185.813 39.1886 185.423 39.1886C184.184 39.1886 183.226 39.6561 182.552 40.5927C181.966 41.4186 181.672 42.4625 181.672 43.7229V52.04H178.152L178.185 41.1807C178.185 39.3538 178.14 37.6904 178.053 36.1905H181.12L181.249 39.2233H181.346C181.718 38.181 182.305 37.3418 183.107 36.7125C183.892 36.1459 184.739 35.8634 185.653 35.8634C185.978 35.8634 186.272 35.8865 186.533 35.9278V39.286Z" fill="white"/>
<path d="M202.284 43.3644C202.284 43.9954 202.242 44.5273 202.155 44.9618H191.59C191.631 46.5277 192.141 47.7253 193.122 48.5512C194.013 49.2896 195.164 49.6596 196.578 49.6596C198.142 49.6596 199.57 49.4102 200.853 48.9097L201.405 51.3544C199.905 52.0086 198.134 52.334 196.091 52.334C193.633 52.334 191.704 51.6105 190.299 50.1651C188.899 48.7197 188.197 46.7788 188.197 44.344C188.197 41.9537 188.849 39.9632 190.156 38.3758C191.523 36.681 193.372 35.8336 195.698 35.8336C197.982 35.8336 199.712 36.681 200.886 38.3758C201.816 39.7221 202.284 41.3871 202.284 43.3644ZM198.925 42.4509C198.949 41.407 198.719 40.5051 198.242 39.7436C197.632 38.764 196.695 38.2751 195.435 38.2751C194.284 38.2751 193.347 38.7524 192.632 39.7105C192.045 40.472 191.697 41.3855 191.59 42.4493H198.925V42.4509Z" fill="white"/>
<path d="M81.5233 16.5334C81.5233 18.4776 80.9402 19.9412 79.7757 20.924C78.697 21.8309 77.1641 22.2851 75.1786 22.2851C74.1941 22.2851 73.3516 22.2422 72.6463 22.1563V11.5332C73.5664 11.3846 74.5575 11.3086 75.6279 11.3086C77.5192 11.3086 78.9448 11.7199 79.9062 12.5425C80.9832 13.4725 81.5233 14.8023 81.5233 16.5334ZM79.698 16.5813C79.698 15.3209 79.3644 14.3546 78.697 13.6807C78.0297 13.0083 77.0551 12.6714 75.7716 12.6714C75.2265 12.6714 74.7623 12.7077 74.3774 12.7837V20.8596C74.5905 20.8926 74.9803 20.9075 75.5469 20.9075C76.8717 20.9075 77.8942 20.5391 78.6144 19.8024C79.3346 19.0657 79.698 17.992 79.698 16.5813Z" fill="white"/>
<path d="M91.2016 18.2316C91.2016 19.4292 90.8596 20.4104 90.1758 21.1801C89.4588 21.9714 88.509 22.3662 87.323 22.3662C86.1799 22.3662 85.2698 21.9879 84.5908 21.228C83.9136 20.4698 83.575 19.5134 83.575 18.3604C83.575 17.1546 83.9235 16.1651 84.6239 15.397C85.3243 14.6289 86.2658 14.244 87.4518 14.244C88.5949 14.244 89.5134 14.6223 90.2088 15.3805C90.8695 16.1172 91.2016 17.0687 91.2016 18.2316ZM89.406 18.2878C89.406 17.5692 89.2507 16.9531 88.9418 16.4393C88.5784 15.8182 88.0614 15.5077 87.3891 15.5077C86.6937 15.5077 86.1651 15.8182 85.8016 16.4393C85.4911 16.9531 85.3375 17.5791 85.3375 18.3191C85.3375 19.0377 85.4928 19.6538 85.8016 20.1676C86.1766 20.7887 86.6986 21.0992 87.3726 21.0992C88.0333 21.0992 88.552 20.7837 88.9253 20.151C89.2458 19.6274 89.406 19.0063 89.406 18.2878Z" fill="white"/>
<path d="M104.178 14.4026L101.742 22.1894H100.156L99.1469 18.8081C98.8909 17.964 98.6828 17.1248 98.5209 16.2923H98.4895C98.3392 17.148 98.131 17.9855 97.8634 18.8081L96.7914 22.1894H95.1874L92.8963 14.4026H94.6754L95.5558 18.1044C95.7689 18.9799 95.944 19.8141 96.0844 20.6036H96.1158C96.2446 19.9528 96.4577 19.1236 96.7584 18.1209L97.8634 14.4042H99.2741L100.333 18.0416C100.589 18.9287 100.797 19.7827 100.957 20.6053H101.005C101.123 19.8041 101.299 18.9501 101.534 18.0416L102.479 14.4042H104.178V14.4026Z" fill="white"/>
<path d="M113.153 22.1894H111.422V17.7294C111.422 16.355 110.9 15.6679 109.853 15.6679C109.339 15.6679 108.924 15.8562 108.602 16.2345C108.283 16.6127 108.121 17.0587 108.121 17.5691V22.1877H106.39V16.6276C106.39 15.9437 106.369 15.202 106.328 14.3992H107.849L107.93 15.6167H107.978C108.179 15.2384 108.48 14.9262 108.875 14.6768C109.344 14.386 109.869 14.239 110.444 14.239C111.171 14.239 111.775 14.4736 112.256 14.9444C112.854 15.5209 113.153 16.3815 113.153 17.5245V22.1894Z" fill="white"/>
<path d="M117.927 22.1894H116.197V10.8296H117.927V22.1894Z" fill="white"/>
<path d="M128.119 18.2316C128.119 19.4292 127.777 20.4104 127.093 21.1801C126.376 21.9714 125.425 22.3662 124.24 22.3662C123.096 22.3662 122.185 21.9879 121.508 21.228C120.831 20.4698 120.492 19.5134 120.492 18.3604C120.492 17.1546 120.841 16.1651 121.541 15.397C122.242 14.6289 123.183 14.244 124.367 14.244C125.512 14.244 126.429 14.6223 127.126 15.3805C127.787 16.1172 128.119 17.0687 128.119 18.2316ZM126.322 18.2878C126.322 17.5692 126.166 16.9531 125.857 16.4393C125.496 15.8182 124.977 15.5077 124.306 15.5077C123.609 15.5077 123.081 15.8182 122.719 16.4393C122.408 16.9531 122.255 17.5791 122.255 18.3191C122.255 19.0377 122.41 19.6538 122.719 20.1676C123.094 20.7887 123.616 21.0992 124.29 21.0992C124.951 21.0992 125.468 20.7837 125.841 20.151C126.163 19.6274 126.322 19.0063 126.322 18.2878Z" fill="white"/>
<path d="M136.497 22.1894H134.943L134.814 21.2925H134.766C134.234 22.0077 133.476 22.3662 132.491 22.3662C131.756 22.3662 131.161 22.13 130.714 21.6608C130.307 21.2347 130.104 20.7044 130.104 20.0751C130.104 19.1236 130.501 18.3984 131.299 17.8963C132.095 17.3941 133.215 17.148 134.657 17.1595V17.0142C134.657 15.9884 134.118 15.4763 133.04 15.4763C132.272 15.4763 131.594 15.6696 131.01 16.0528L130.658 14.9163C131.381 14.4687 132.275 14.244 133.329 14.244C135.364 14.244 136.385 15.3177 136.385 17.4651V20.3327C136.385 21.1108 136.423 21.7302 136.497 22.1894ZM134.7 19.5134V18.3125C132.79 18.2795 131.835 18.8031 131.835 19.8818C131.835 20.2881 131.944 20.5921 132.167 20.7953C132.39 20.9984 132.675 21.0992 133.013 21.0992C133.393 21.0992 133.748 20.9786 134.072 20.7391C134.397 20.4979 134.597 20.1923 134.672 19.8174C134.69 19.7331 134.7 19.6307 134.7 19.5134Z" fill="white"/>
<path d="M146.334 22.1894H144.797L144.717 20.9389H144.669C144.178 21.8904 143.342 22.3661 142.168 22.3661C141.229 22.3661 140.448 21.9978 139.829 21.261C139.209 20.5243 138.9 19.5679 138.9 18.3934C138.9 17.1331 139.236 16.1122 139.91 15.3325C140.562 14.6057 141.362 14.2423 142.313 14.2423C143.359 14.2423 144.091 14.5942 144.507 15.2995H144.54V10.8296H146.273V20.0915C146.273 20.8497 146.292 21.5485 146.334 22.1894ZM144.54 18.9055V17.6071C144.54 17.3825 144.523 17.2008 144.492 17.062C144.394 16.6458 144.185 16.2956 143.866 16.0131C143.544 15.7306 143.156 15.5886 142.708 15.5886C142.062 15.5886 141.557 15.8446 141.185 16.3583C140.817 16.8721 140.63 17.5278 140.63 18.329C140.63 19.0988 140.807 19.7232 141.162 20.2038C141.537 20.7159 142.042 20.972 142.675 20.972C143.243 20.972 143.697 20.7589 144.043 20.331C144.376 19.9362 144.54 19.4605 144.54 18.9055Z" fill="white"/>
<path d="M161.139 18.2316C161.139 19.4292 160.797 20.4104 160.113 21.1801C159.397 21.9714 158.448 22.3662 157.261 22.3662C156.119 22.3662 155.209 21.9879 154.529 21.228C153.851 20.4698 153.513 19.5134 153.513 18.3604C153.513 17.1546 153.861 16.1651 154.562 15.397C155.262 14.6289 156.204 14.244 157.391 14.244C158.533 14.244 159.453 14.6223 160.147 15.3805C160.807 16.1172 161.139 17.0687 161.139 18.2316ZM159.345 18.2878C159.345 17.5692 159.19 16.9531 158.881 16.4393C158.516 15.8182 158.001 15.5077 157.327 15.5077C156.633 15.5077 156.104 15.8182 155.739 16.4393C155.429 16.9531 155.275 17.5791 155.275 18.3191C155.275 19.0377 155.43 19.6538 155.739 20.1676C156.114 20.7887 156.636 21.0992 157.31 21.0992C157.971 21.0992 158.491 20.7837 158.865 20.151C159.184 19.6274 159.345 19.0063 159.345 18.2878Z" fill="white"/>
<path d="M170.448 22.1894H168.718V17.7294C168.718 16.355 168.196 15.6679 167.147 15.6679C166.633 15.6679 166.219 15.8562 165.898 16.2345C165.578 16.6127 165.418 17.0587 165.418 17.5691V22.1877H163.685V16.6276C163.685 15.9437 163.665 15.202 163.624 14.3992H165.143L165.224 15.6167H165.272C165.475 15.2384 165.776 14.9262 166.169 14.6768C166.64 14.386 167.164 14.239 167.74 14.239C168.465 14.239 169.07 14.4736 169.551 14.9444C170.15 15.5209 170.448 16.3815 170.448 17.5245V22.1894Z" fill="white"/>
<path d="M182.098 15.6992H180.192V19.482C180.192 20.4434 180.53 20.924 181.201 20.924C181.512 20.924 181.769 20.8976 181.972 20.8431L182.017 22.1563C181.675 22.2852 181.226 22.3496 180.672 22.3496C179.989 22.3496 179.457 22.1415 179.072 21.7252C178.685 21.3089 178.494 20.6085 178.494 19.6257V15.6992H177.356V14.4025H178.494V12.9753L180.19 12.4633V14.4009H182.096V15.6992H182.098Z" fill="white"/>
<path d="M191.262 22.1894H189.53V17.7624C189.53 16.3666 189.008 15.6679 187.962 15.6679C187.159 15.6679 186.611 16.0726 186.31 16.882C186.259 17.0521 186.229 17.2602 186.229 17.5047V22.1877H184.5V10.8296H186.229V15.5225H186.262C186.807 14.6685 187.589 14.2423 188.601 14.2423C189.318 14.2423 189.911 14.4769 190.382 14.9477C190.968 15.5341 191.262 16.4062 191.262 17.5592V22.1894Z" fill="white"/>
<path d="M200.716 17.9276C200.716 18.2382 200.693 18.4992 200.652 18.7122H195.46C195.483 19.482 195.731 20.0684 196.211 20.4748C196.651 20.8382 197.217 21.0199 197.911 21.0199C198.679 21.0199 199.38 20.8976 200.011 20.6515L200.282 21.8541C199.543 22.1745 198.674 22.3348 197.668 22.3348C196.462 22.3348 195.513 21.9796 194.825 21.2693C194.135 20.559 193.793 19.6059 193.793 18.41C193.793 17.2355 194.112 16.2576 194.754 15.4779C195.425 14.6454 196.332 14.2291 197.477 14.2291C198.597 14.2291 199.447 14.6454 200.022 15.4779C200.486 16.1387 200.716 16.9563 200.716 17.9276ZM199.064 17.48C199.077 16.9662 198.963 16.5235 198.729 16.1502C198.428 15.6695 197.971 15.4284 197.351 15.4284C196.786 15.4284 196.325 15.6629 195.974 16.1337C195.686 16.5087 195.516 16.9563 195.46 17.48H199.064Z" fill="white"/>
</svg>
