<svg width="20" height="20" viewBox="0 0 20 20" fill="none" xmlns="http://www.w3.org/2000/svg">
<path d="M18.3333 6.07012C18.3333 8.27143 16.4676 10.0562 14.1667 10.0562C13.8961 10.0566 13.6263 10.0316 13.3606 9.98165C13.1692 9.94573 13.0736 9.92782 13.0068 9.93798C12.9401 9.94815 12.8454 9.99849 12.6562 10.0992C12.1208 10.3838 11.4966 10.4844 10.8962 10.3727C11.1244 10.0921 11.2803 9.75532 11.349 9.39432C11.3907 9.17348 11.2875 8.95898 11.1328 8.80198C10.4305 8.08879 10 7.12777 10 6.07012C10 3.8688 11.8657 2.08398 14.1667 2.08398C16.4676 2.08398 18.3333 3.8688 18.3333 6.07012Z" stroke="#1D2739" stroke-width="1.5" stroke-linejoin="round"/>
<path d="M12.9102 6.25H12.9169H12.9102ZM15.4102 6.25H15.4169H15.4102Z" fill="white"/>
<path d="M12.9102 6.25H12.9169M15.4102 6.25H15.4169" stroke="#1D2739" stroke-width="1.5" stroke-linecap="round"/>
<path d="M6.2516 17.9175H3.93183C3.66242 17.9175 3.39186 17.8796 3.14441 17.7733C2.3389 17.4272 1.93022 16.9702 1.73976 16.6843C1.63139 16.5217 1.64683 16.3144 1.7644 16.1583C2.69765 14.9188 4.8654 14.17 6.25556 14.1699C7.64572 14.17 9.80952 14.9188 10.7428 16.1583C10.8604 16.3144 10.8758 16.5217 10.7674 16.6843C10.5769 16.9702 10.1683 17.4272 9.36277 17.7733C9.11527 17.8796 8.84477 17.9175 8.57535 17.9175H6.2516Z" stroke="#1D2739" stroke-width="1.5" stroke-linecap="round" stroke-linejoin="round"/>
<path d="M8.57123 9.82425C8.57123 11.1003 7.53449 12.1347 6.25561 12.1347C4.97674 12.1347 3.94 11.1003 3.94 9.82425C3.94 8.54816 4.97674 7.51367 6.25561 7.51367C7.53449 7.51367 8.57123 8.54816 8.57123 9.82425Z" stroke="#1D2739" stroke-width="1.5" stroke-linecap="round" stroke-linejoin="round"/>
</svg>
