<svg width="20" height="20" viewBox="0 0 20 20" fill="none" xmlns="http://www.w3.org/2000/svg">
<path d="M3.75 8.33268C3.75 5.18998 3.75 3.61864 4.72631 2.64232C5.70262 1.66602 7.27397 1.66602 10.4167 1.66602H11.6667C14.8093 1.66602 16.3808 1.66602 17.357 2.64232C18.3333 3.61864 18.3333 5.18998 18.3333 8.33268V11.666C18.3333 14.8087 18.3333 16.3801 17.357 17.3563C16.3808 18.3327 14.8093 18.3327 11.6667 18.3327H10.4167C7.27397 18.3327 5.70262 18.3327 4.72631 17.3563C3.75 16.3801 3.75 14.8087 3.75 11.666V8.33268Z" stroke="#1D2739" stroke-width="1.5"/>
<path d="M3.75002 5H1.66669H3.75002ZM3.75002 10H1.66669H3.75002ZM3.75002 15H1.66669H3.75002Z" fill="white"/>
<path d="M3.75002 5H1.66669M3.75002 10H1.66669M3.75002 15H1.66669" stroke="#1D2739" stroke-width="1.5" stroke-linecap="round" stroke-linejoin="round"/>
<path d="M12.7289 7.07676C12.7289 7.99721 11.9828 8.74342 11.0623 8.74342C10.1419 8.74342 9.39575 7.99721 9.39575 7.07676C9.39575 6.15632 10.1419 5.41016 11.0623 5.41016C11.9828 5.41016 12.7289 6.15632 12.7289 7.07676Z" stroke="#1D2739" stroke-width="1.5" stroke-linecap="round" stroke-linejoin="round"/>
<path d="M7.76654 13.0961C8.64852 11.7383 10.0491 11.2295 11.0624 11.2305C12.0759 11.2316 13.4354 11.7383 14.3173 13.0961C14.3744 13.1839 14.39 13.292 14.3386 13.3832C14.1324 13.749 13.4919 14.4747 13.0294 14.524C12.4979 14.5805 11.1076 14.5884 11.0635 14.5886C11.0194 14.5884 9.58619 14.5805 9.05444 14.524C8.59194 14.4747 7.95152 13.749 7.74526 13.3832C7.6938 13.292 7.70951 13.1839 7.76654 13.0961Z" stroke="#1D2739" stroke-width="1.5" stroke-linecap="round" stroke-linejoin="round"/>
</svg>
