<svg width="20" height="20" viewBox="0 0 20 20" fill="none" xmlns="http://www.w3.org/2000/svg">
<path d="M14.1354 7.48515C14.1334 5.02669 14.0963 3.75328 13.3806 2.88135C13.2424 2.71296 13.088 2.55857 12.9196 2.42038C11.9998 1.66553 10.6331 1.66553 7.8998 1.66553C5.16648 1.66553 3.79982 1.66553 2.87997 2.42038C2.71157 2.55856 2.55717 2.71296 2.41896 2.88135C1.66406 3.80114 1.66406 5.16771 1.66406 7.90084C1.66406 10.634 1.66406 12.0005 2.41896 12.9203C2.55716 13.0887 2.71157 13.2431 2.87997 13.3812C3.75196 14.0969 5.02546 14.1341 7.48408 14.1361" stroke="#1D2739" stroke-width="1.5" stroke-linecap="round" stroke-linejoin="round"/>
<path d="M11.6893 7.52038L14.1607 7.48486M11.6776 18.3343L14.149 18.2988M18.3087 11.685L18.2854 14.1514M7.50768 11.6963L7.48438 14.1627M9.57177 7.52038C8.87786 7.64468 7.76393 7.77253 7.50768 9.20726M16.2446 18.2988C16.9404 18.1852 18.0562 18.0744 18.3344 16.6438M16.2446 7.52038C16.9386 7.64468 18.0525 7.77253 18.3087 9.20726M9.58244 18.2977C8.88836 18.1738 7.7744 18.0465 7.51738 16.6119" stroke="#1D2739" stroke-width="1.5" stroke-linecap="round" stroke-linejoin="round"/>
</svg>
