                 <svg width="20" height="20" viewBox="0 0 20 20" fill="none" xmlns="http://www.w3.org/2000/svg">
            <path d="M2.08301 9.99992C2.08301 6.26797 2.08301 4.40199 3.24237 3.24262C4.40175 2.08325 6.26772 2.08325 9.99967 2.08325C13.7316 2.08325 15.5976 2.08325 16.757 3.24262C17.9163 4.40199 17.9163 6.26797 17.9163 9.99992C17.9163 13.7318 17.9163 15.5978 16.757 16.7573C15.5976 17.9166 13.7316 17.9166 9.99967 17.9166C6.26772 17.9166 4.40175 17.9166 3.24237 16.7573C2.08301 15.5978 2.08301 13.7318 2.08301 9.99992Z" fill="white" stroke="white" stroke-width="1.5" stroke-linejoin="round"/>
            <path d="M5 7.50008H7.91667M14.1667 7.50008H15M10 6.66675V8.33341M12.0833 6.66675V8.33341" stroke="#5B8469" stroke-width="1.5" stroke-linecap="round" stroke-linejoin="round"/>
            <path d="M15 12.5001H10M5.83333 12.5001H5M7.91667 11.6667V13.3334" stroke="#5B8469" stroke-width="1.5" stroke-linecap="round" stroke-linejoin="round"/>
            </svg>