<svg width="20" height="21" viewBox="0 0 20 21" fill="none" xmlns="http://www.w3.org/2000/svg">
<path d="M2.08203 10.3511C2.08203 6.61916 2.08203 4.75319 3.2414 3.59381C4.40077 2.43445 6.26675 2.43445 9.9987 2.43445C13.7306 2.43445 15.5966 2.43445 16.756 3.59381C17.9154 4.75319 17.9154 6.61916 17.9154 10.3511C17.9154 14.083 17.9154 15.949 16.756 17.1084C15.5966 18.2678 13.7306 18.2678 9.9987 18.2678C6.26675 18.2678 4.40077 18.2678 3.2414 17.1084C2.08203 15.949 2.08203 14.083 2.08203 10.3511Z" fill="#EBE5E0" stroke="#EBE5E0" stroke-width="1.5" stroke-linejoin="round"/>
<path d="M5 7.85103H7.91667H5ZM14.1667 7.85103H15H14.1667ZM10 7.0177V8.68437V7.0177ZM12.0833 7.0177V8.68437V7.0177Z" fill="#292929"/>
<path d="M5 7.85103H7.91667M14.1667 7.85103H15M10 7.0177V8.68437M12.0833 7.0177V8.68437" stroke="#292929" stroke-width="1.5" stroke-linecap="round" stroke-linejoin="round"/>
<path d="M15 12.851H10H15ZM5.83333 12.851H5H5.83333ZM7.91667 12.0177V13.6844V12.0177Z" fill="#292929"/>
<path d="M15 12.851H10M5.83333 12.851H5M7.91667 12.0177V13.6844" stroke="#292929" stroke-width="1.5" stroke-linecap="round" stroke-linejoin="round"/>
</svg>
