<svg width="40" height="40" viewBox="0 0 40 40" fill="none" xmlns="http://www.w3.org/2000/svg">
<path d="M19.3534 14.0807L10.0059 20.4041C9.73786 20.5862 9.57715 20.8894 9.57715 21.2137V31.3446C9.57804 31.6037 9.68161 31.8519 9.8651 32.035C10.0486 32.218 10.2972 32.3207 10.5564 32.3207H15.6988C15.9584 32.3207 16.2075 32.2175 16.3912 32.0338C16.5747 31.8501 16.678 31.601 16.678 31.3414V25.0883C16.678 24.828 16.7816 24.5787 16.966 24.3948C17.1501 24.211 17.4001 24.1084 17.6604 24.1093H22.1403C22.4001 24.1093 22.649 24.2124 22.8327 24.3959C23.0164 24.5796 23.1195 24.8287 23.1195 25.0883V31.3443C23.1204 31.6041 23.2244 31.8527 23.4086 32.0358C23.5927 32.2188 23.8423 32.3213 24.1019 32.3204H29.2443C29.5041 32.3204 29.753 32.2173 29.9367 32.0336C30.1204 31.8499 30.2235 31.6008 30.2235 31.3412V21.2132C30.2235 20.8888 30.0628 20.5858 29.7947 20.4036L20.4473 14.0802C20.2857 13.971 20.0951 13.913 19.9002 13.913C19.7053 13.913 19.5147 13.971 19.3531 14.0802L19.3534 14.0807Z" fill="#F3A03D"/>
<path d="M33.8687 17.1944L30.2238 14.7431V10.196C30.2238 10.0891 30.1814 9.98639 30.1058 9.91072C30.0301 9.83527 29.9276 9.79264 29.8207 9.79264H27.3535C27.2448 9.79018 27.1397 9.83148 27.062 9.90737C26.9843 9.98326 26.9406 10.0873 26.9406 10.196V12.5415L20.448 8.16719C20.2864 8.05826 20.0958 8 19.9009 8C19.706 8 19.5154 8.05826 19.3538 8.16719L5.93266 17.1946C5.69896 17.3518 5.54426 17.602 5.5081 17.8815C5.47194 18.1607 5.55788 18.4422 5.74404 18.6538L6.85118 19.9145C7.0081 20.0929 7.2244 20.2078 7.45987 20.2384C7.69536 20.2692 7.93376 20.2132 8.13107 20.081L19.3534 12.5387C19.5145 12.4305 19.7045 12.3727 19.8989 12.3727C20.0931 12.3727 20.283 12.4305 20.4444 12.5387L31.6701 20.0776C31.8675 20.2097 32.1059 20.2658 32.3413 20.2352C32.5768 20.2046 32.7931 20.0894 32.95 19.9113L34.0572 18.6506V18.6504C34.2422 18.439 34.3275 18.1584 34.2913 17.8799C34.2552 17.6013 34.1012 17.3517 33.8686 17.1946L33.8687 17.1944Z" fill="#F3A03D"/>
</svg>
