          <svg width="20" height="20" viewBox="0 0 20 20" fill="none" xmlns="http://www.w3.org/2000/svg">
<path d="M5.83366 6.66095H13.3337C15.6907 6.66095 16.8692 6.66095 17.6014 7.39354C18.3337 8.12613 18.3337 9.30517 18.3337 11.6633V13.3308C18.3337 15.689 18.3337 16.8681 17.6014 17.6007C16.8692 18.3333 15.6907 18.3333 13.3337 18.3333H8.33366C5.19096 18.3333 3.61962 18.3333 2.6433 17.3565C1.66699 16.3797 1.66699 14.8076 1.66699 11.6633V9.99592C1.66699 6.85168 1.66699 5.27957 2.6433 4.30279C3.42921 3.5165 4.60068 3.36316 6.66699 3.33325H8.33366" stroke="#D0D5DD" stroke-width="1.5" stroke-linecap="round"/>
<path d="M13.333 11.6667C13.333 12.3571 13.8927 12.9167 14.583 12.9167C15.2733 12.9167 15.833 12.3571 15.833 11.6667C15.833 10.9764 15.2733 10.4167 14.583 10.4167C13.8927 10.4167 13.333 10.9764 13.333 11.6667Z" stroke="#D0D5DD" stroke-width="1.5"/>
<path d="M15.75 6.66675C15.8047 6.39749 15.8333 6.11881 15.8333 5.83341C15.8333 3.53223 13.9678 1.66675 11.6667 1.66675C9.3655 1.66675 7.5 3.53223 7.5 5.83341C7.5 6.11881 7.52869 6.39749 7.58335 6.66675" stroke="#D0D5DD" stroke-width="1.5"/>
</svg>