<svg width="20" height="21" viewBox="0 0 20 21" fill="none" xmlns="http://www.w3.org/2000/svg">
<path d="M16.68 2.0177C15.7522 2.0177 15 4.25628 15 7.0177H16.68C17.4897 7.0177 17.8945 7.0177 18.1451 6.73816C18.3958 6.45861 18.3521 6.09048 18.2648 5.35421C18.0345 3.41056 17.4119 2.0177 16.68 2.0177Z" stroke="#EBE5E0" stroke-width="1.5"/>
<path d="M15.0013 7.06292V15.8892C15.0013 17.149 15.0013 17.7788 14.6163 18.0267C13.9872 18.432 13.0147 17.5822 12.5256 17.2738C12.1214 17.0189 11.9194 16.8915 11.6951 16.8841C11.4527 16.8761 11.2471 16.9984 10.8104 17.2738L9.21797 18.278C8.78839 18.5489 8.57363 18.6844 8.33463 18.6844C8.09564 18.6844 7.88085 18.5489 7.4513 18.278L5.85891 17.2738C5.45476 17.0189 5.25268 16.8915 5.02841 16.8841C4.78607 16.8761 4.58041 16.9984 4.14369 17.2738C3.65459 17.5822 2.68203 18.432 2.05293 18.0267C1.66797 17.7788 1.66797 17.149 1.66797 15.8892V7.06292C1.66797 4.68458 1.66797 3.49541 2.4002 2.75656C3.13244 2.0177 4.31094 2.0177 6.66797 2.0177H16.668" stroke="#EBE5E0" stroke-width="1.5" stroke-linecap="round" stroke-linejoin="round"/>
<path d="M5 5.35107H11.6667" stroke="#EBE5E0" stroke-width="1.5" stroke-linecap="round" stroke-linejoin="round"/>
<path d="M6.66667 8.68445H5" stroke="#EBE5E0" stroke-width="1.5" stroke-linecap="round" stroke-linejoin="round"/>
<path d="M10.418 9.41361C9.72764 9.41361 9.16797 9.90328 9.16797 10.5074C9.16797 11.1114 9.72764 11.6011 10.418 11.6011C11.1083 11.6011 11.668 12.0908 11.668 12.6949C11.668 13.2989 11.1083 13.7886 10.418 13.7886M10.418 9.41361C10.9622 9.41361 11.4252 9.71795 11.5968 10.1428M10.418 9.41361V8.68445M10.418 13.7886C9.87372 13.7886 9.41072 13.4843 9.23914 13.0594M10.418 13.7886V14.5178" stroke="#EBE5E0" stroke-width="1.5" stroke-linecap="round"/>
</svg>
