<svg width="46" height="32" viewBox="0 0 46 32" fill="none" xmlns="http://www.w3.org/2000/svg">
<rect x="0.5" y="0.5" width="45" height="31" rx="3.5" fill="white"/>
<rect x="0.5" y="0.5" width="45" height="31" rx="3.5" stroke="#F2F4F7"/>
<path fill-rule="evenodd" clip-rule="evenodd" d="M19.3414 14.2084H13.5013H13.4043C13.8502 8.47243 16.1802 6.73733 22.2497 6.66758C22.3431 6.66699 22.4339 6.66699 22.5262 6.66699H22.6902C22.7827 6.66699 22.8733 6.66699 22.967 6.66758C23.7357 6.67639 24.4439 6.71222 25.0967 6.77903C25.0488 6.78065 25.0019 6.78226 24.9492 6.78799C24.9003 6.79284 24.8391 6.79648 24.7668 6.80078C24.0486 6.84349 22.2376 6.95119 20.5806 8.9529C19.6011 10.1375 19.504 14.2084 19.504 14.2084H19.3414ZM18.9093 21.1882C18.2245 22.0445 17.2388 21.987 17.225 21.9861V25.4667C14.7862 24.4821 13.687 22.4291 13.4003 18.6437C13.3657 18.1876 13.345 17.7867 13.332 17.4545L19.5041 17.4522L19.5 17.8196L19.5 17.8203L19.5 17.8213C19.4927 18.4566 19.4787 19.6883 19.4802 19.7294C19.4849 19.9102 19.4392 20.5262 18.9093 21.1882ZM27.0507 7.12292C30.1522 7.94891 31.4955 10.0132 31.8162 14.2541C31.916 15.5712 31.9046 16.4486 31.9046 16.4486C31.9046 16.4486 31.9162 17.3265 31.8163 18.6435C31.3798 24.4162 29.0524 26.16 22.9671 26.23C22.8734 26.2306 22.3432 26.2306 22.2498 26.23C21.1943 26.2177 20.2552 26.1538 19.4162 26.029C19.4198 26.0289 19.4234 26.0289 19.427 26.0289C19.4527 26.0286 19.478 26.0284 19.5041 26.0266C20.6051 25.9635 22.138 25.1143 23.0504 23.1388C23.4489 22.2749 23.556 20.7328 23.556 20.7328V17.4529H23.5563V17.452H26.8893H27.051V14.2081H26.8893H23.5565C23.5565 14.2081 23.5565 14.2077 23.5563 14.2075C23.5563 14.2075 23.5548 14.2041 23.5536 14.198L23.5527 14.1937C23.5519 14.1911 23.5512 14.1883 23.5504 14.1852C23.5494 14.1814 23.5483 14.177 23.5466 14.1717C23.5464 14.1706 23.5462 14.1692 23.546 14.1677C23.5456 14.1656 23.5453 14.1634 23.5451 14.1614C23.5426 14.152 23.5404 14.1429 23.5386 14.1304C23.5378 14.1273 23.5372 14.1237 23.5367 14.1199C23.5364 14.1174 23.536 14.1149 23.5356 14.1125C23.5332 14.1003 23.5313 14.088 23.5294 14.0734C23.528 14.0677 23.5275 14.0606 23.5271 14.0539C23.527 14.0524 23.5269 14.0508 23.5267 14.0494C23.5244 14.0339 23.5228 14.0193 23.5209 14.0016C23.5206 13.998 23.5205 13.9942 23.5203 13.9904C23.5201 13.9848 23.5199 13.979 23.5194 13.9737C23.5192 13.9701 23.5189 13.9664 23.5187 13.9627C23.5177 13.9477 23.5167 13.9326 23.5165 13.9157C23.5163 13.9107 23.5163 13.9054 23.5163 13.9001C23.5163 13.8948 23.5163 13.8895 23.5162 13.8845C23.5162 13.8771 23.516 13.8699 23.5159 13.8625C23.5156 13.8476 23.5153 13.8325 23.5162 13.8162C23.5162 13.8105 23.5165 13.8044 23.5169 13.7982C23.5172 13.7935 23.5175 13.7887 23.5176 13.784C23.5182 13.758 23.5193 13.7322 23.522 13.7034C23.5223 13.6992 23.5228 13.6948 23.5233 13.6903C23.5238 13.6854 23.5244 13.6805 23.5247 13.6756C23.5275 13.6442 23.5311 13.6125 23.536 13.5787C23.5363 13.5755 23.5369 13.5722 23.5376 13.5689C23.5382 13.5657 23.5388 13.5625 23.5391 13.5595C23.5449 13.5213 23.5513 13.4825 23.5596 13.4417C23.5596 13.4408 23.5599 13.4395 23.5602 13.4382C23.6193 13.1546 23.7458 12.8056 23.9994 12.4102C24.6814 11.3491 26.6179 11.399 26.9893 11.4187C27.0282 11.421 27.0501 11.4226 27.0507 11.4226V7.12292ZM19.2929 26.0087C19.2951 26.0088 19.2974 26.0088 19.2996 26.0089C19.2974 26.0088 19.2952 26.0088 19.293 26.0087H19.2929Z" fill="#659AD2"/>
</svg>
