<svg width="40" height="40" viewBox="0 0 40 40" fill="none" xmlns="http://www.w3.org/2000/svg">
<path d="M33.0477 19.8701L28.8477 18.4702V18.47C28.5573 18.372 28.2423 18.372 27.9519 18.47L23.7519 19.8699V19.8701C23.4737 19.9639 23.2322 20.1429 23.0614 20.3815C22.8905 20.6201 22.7989 20.9065 22.7998 21.2V24.0001C22.7998 26.0007 23.8672 27.8495 25.5997 28.8498C27.3324 29.8501 29.4671 29.8501 31.1999 28.8498C32.9324 27.8495 33.9997 26.0007 33.9997 24.0001V21.2C34.0007 20.9066 33.909 20.6201 33.7382 20.3815C33.5673 20.1429 33.3259 19.9639 33.0477 19.8701ZM31.1999 24.0001C31.1999 25.0004 30.6662 25.9248 29.7997 26.4249C28.9334 26.9251 27.8661 26.9251 26.9999 26.4249C26.1334 25.9248 25.5997 25.0004 25.5997 24.0001V22.208L28.3998 21.2701L31.1999 22.208V24.0001Z" fill="#4161AE"/>
<path d="M32.6001 10H7.39993C7.02868 10 6.67242 10.1474 6.40992 10.4099C6.14742 10.6724 6 11.0286 6 11.3999V28.2C6 28.5713 6.14742 28.9275 6.40992 29.19C6.67242 29.4525 7.02865 29.6 7.39993 29.6H21.134C21.6342 29.6 22.0964 29.3332 22.3464 28.9001C22.5965 28.467 22.5965 27.9331 22.3464 27.4999C22.0964 27.0668 21.6342 26.8001 21.134 26.8001H8.79974V21.1999H20C20.5002 21.1999 20.9623 20.9332 21.2124 20.5001C21.4625 20.0669 21.4625 19.533 21.2124 19.0999C20.9623 18.6668 20.5002 18.4001 20 18.4001H8.79974V16.9999H32.6001C32.9713 16.9999 33.3276 16.8525 33.5901 16.59C33.8526 16.3275 34 15.9712 34 15.6V11.3999C34 11.0287 33.8526 10.6724 33.5901 10.4099C33.3276 10.1474 32.9714 10 32.6001 10ZM8.79974 12.7999H31.2003V14.2H8.79974V12.7999Z" fill="#4161AE"/>
</svg>
