<svg width="224" height="67" viewBox="0 0 224 67" fill="none" xmlns="http://www.w3.org/2000/svg">
<g clip-path="url(#clip0_1_751)">
<path d="M215.236 66.0734H8.76255C4.22004 66.0734 0.503494 62.3569 0.503494 57.8144V8.26003C0.503494 3.71752 4.22004 0.000976562 8.76255 0.000976562H215.236C219.778 0.000976562 223.495 3.71752 223.495 8.26003V57.8144C223.495 62.3569 219.778 66.0734 215.236 66.0734Z" fill="#100F0D"/>
<path d="M215.236 0.000976562H8.76255C4.22004 0.000976562 0.503494 3.71752 0.503494 8.26003V57.8144C0.503494 62.3569 4.22004 66.0734 8.76255 66.0734H215.236C219.778 66.0734 223.495 62.3569 223.495 57.8144V8.26003C223.495 3.71752 219.778 0.000976562 215.236 0.000976562ZM215.236 1.32176C219.061 1.32176 222.173 4.43446 222.173 8.26003V57.8144C222.173 61.6399 219.061 64.7526 215.236 64.7526H8.76255C4.93698 64.7526 1.82564 61.6399 1.82564 57.8144V8.26003C1.82564 4.43446 4.93698 1.32176 8.76255 1.32176H215.236Z" fill="#A2A2A1"/>
<path d="M177.141 49.5555H180.223V28.9045H177.141V49.5555ZM204.903 36.344L201.37 45.2967H201.264L197.597 36.344H194.277L199.778 48.8568L196.641 55.8175H199.855L208.331 36.3446L204.903 36.344ZM187.422 47.2098C186.415 47.2098 185.006 46.7045 185.006 45.456C185.006 43.8622 186.76 43.2512 188.273 43.2512C189.628 43.2512 190.267 43.5429 191.089 43.9417C190.85 45.8547 189.203 47.2097 187.422 47.2097L187.422 47.2098ZM187.796 35.8923C185.564 35.8923 183.253 36.8756 182.297 39.0541L185.032 40.1961C185.617 39.0541 186.705 38.6825 187.849 38.6825C189.442 38.6825 191.063 39.638 191.089 41.3389V41.5512C190.531 41.2324 189.335 40.7543 187.875 40.7543C184.925 40.7543 181.923 42.3744 181.923 45.4031C181.923 48.1661 184.342 49.9463 187.051 49.9463C189.122 49.9463 190.267 49.0164 190.982 47.9268H191.089V49.5217H194.066V41.604C194.066 37.9377 191.327 35.8923 187.796 35.8923V35.8923ZM168.746 38.8578H164.363V31.7797H168.746C171.051 31.7797 172.359 33.6871 172.359 35.3187C172.359 36.919 171.051 38.8578 168.746 38.8578ZM168.667 28.905H161.282V49.556H164.363V41.7326H168.667C172.083 41.7326 175.441 39.26 175.441 35.3195C175.441 31.3797 172.083 28.9059 168.667 28.9059L168.667 28.905ZM128.395 47.2133C126.265 47.2133 124.483 45.4298 124.483 42.9825C124.483 40.5067 126.265 38.698 128.395 38.698C130.497 38.698 132.147 40.5068 132.147 42.9825C132.147 45.4298 130.497 47.2133 128.395 47.2133ZM131.934 37.5H131.827C131.136 36.6753 129.804 35.9301 128.129 35.9301C124.615 35.9301 121.396 39.0175 121.396 42.9825C121.396 46.9204 124.615 49.9807 128.129 49.9807C129.804 49.9807 131.136 49.2354 131.827 48.3844H131.934V49.3948C131.934 52.0836 130.497 53.5198 128.182 53.5198C126.293 53.5198 125.122 52.1629 124.643 51.0188L121.955 52.1363C122.726 53.9984 124.775 56.2878 128.182 56.2878C131.802 56.2878 134.862 54.1584 134.862 48.9688V36.3557H131.934L131.934 37.5ZM136.991 49.5549H140.077V28.9039H136.991V49.5549ZM144.628 42.7425C144.548 40.028 146.731 38.6445 148.3 38.6445C149.525 38.6445 150.562 39.2568 150.909 40.1344L144.628 42.7425ZM154.208 40.4003C153.622 38.8311 151.84 35.9301 148.194 35.9301C144.574 35.9301 141.567 38.7774 141.567 42.9555C141.567 46.894 144.548 49.9808 148.539 49.9808C151.759 49.9808 153.622 48.0122 154.395 46.8675L151.999 45.2706C151.201 46.4417 150.11 47.2134 148.539 47.2134C146.97 47.2134 145.852 46.4947 145.134 45.0843L154.527 41.1992L154.208 40.4003ZM79.3675 38.0858V41.0662H86.4991C86.2862 42.7426 85.7274 43.9665 84.8757 44.8183C83.8375 45.8558 82.2142 47.0004 79.3673 47.0004C74.9764 47.0004 71.5438 43.4613 71.5438 39.0704C71.5438 34.6796 74.9764 31.1399 79.3673 31.1399C81.7359 31.1399 83.4652 32.0716 84.7426 33.2691L86.8455 31.1663C85.062 29.4635 82.694 28.1595 79.3673 28.1595C73.3523 28.1595 68.2963 33.0561 68.2963 39.0704C68.2963 45.0841 73.3523 49.9808 79.3673 49.9808C82.6135 49.9808 85.0621 48.9162 86.9778 46.9205C88.9472 44.9512 89.5594 42.1838 89.5594 39.9481C89.5594 39.257 89.5058 38.6182 89.3994 38.0858H79.3675ZM97.6683 47.2133C95.5389 47.2133 93.7027 45.4569 93.7027 42.9555C93.7027 40.4274 95.5389 38.6982 97.6683 38.6982C99.7969 38.6982 101.633 40.4274 101.633 42.9555C101.633 45.4569 99.7969 47.2133 97.6683 47.2133ZM97.6683 35.9301C93.7819 35.9301 90.6157 38.8839 90.6157 42.9555C90.6157 47.0004 93.7819 49.9808 97.6683 49.9808C101.553 49.9808 104.72 47.0004 104.72 42.9555C104.72 38.8839 101.553 35.9301 97.6683 35.9301ZM113.052 47.2133C110.924 47.2133 109.087 45.4569 109.087 42.9555C109.087 40.4274 110.924 38.6982 113.052 38.6982C115.181 38.6982 117.017 40.4274 117.017 42.9555C117.017 45.4569 115.181 47.2133 113.052 47.2133ZM113.052 35.9301C109.167 35.9301 106 38.8839 106 42.9555C106 47.0004 109.167 49.9808 113.052 49.9808C116.938 49.9808 120.104 47.0004 120.104 42.9555C120.104 38.8839 116.938 35.9301 113.052 35.9301Z" fill="white"/>
<path d="M34.7206 32.086L17.1358 50.7511C17.1365 50.755 17.1378 50.7582 17.1384 50.7622C17.6777 52.789 19.529 54.2814 21.726 54.2814C22.6043 54.2814 23.4289 54.0439 24.136 53.6271L24.1922 53.5942L43.9871 42.1716L34.7215 32.0858" fill="#EB3131"/>
<path d="M52.5123 28.9082L52.4954 28.8967L43.9493 23.9424L34.321 32.51L43.9828 42.1705L52.4838 37.2655C53.9742 36.4609 54.986 34.8897 54.986 33.0778C54.986 31.279 53.9878 29.7156 52.5121 28.9083" fill="#F6B60B"/>
<path d="M17.1333 15.3251C17.0276 15.7149 16.972 16.1232 16.972 16.5472V49.5302C16.972 49.9534 17.027 50.3631 17.134 50.7516L35.3258 32.5634L17.134 15.3255" fill="#5778C5"/>
<path d="M34.8507 33.0387L43.9532 23.939L24.1805 12.475C23.4618 12.0446 22.623 11.7961 21.7254 11.7961C19.5283 11.7961 17.6746 13.2912 17.1352 15.3204C17.1345 15.3224 17.1345 15.3238 17.1345 15.3255L34.8506 33.0391" fill="#3BAD49"/>
<path d="M78.7891 16.1576H73.9705V17.3501H77.5813C77.4832 18.3232 77.096 19.0871 76.4431 19.642C75.7901 20.197 74.9564 20.4757 73.9705 20.4757C72.889 20.4757 71.9728 20.0989 71.2219 19.3505C70.4862 18.5865 70.112 17.6418 70.112 16.5037C70.112 15.3656 70.4862 14.4208 71.2219 13.6569C71.9728 12.9085 72.889 12.5342 73.9705 12.5342C74.5255 12.5342 75.0546 12.6297 75.5397 12.8388C76.025 13.0478 76.4146 13.3395 76.7192 13.7138L77.6355 12.7975C77.2199 12.3251 76.6934 11.9638 76.0403 11.7005C75.3873 11.4372 74.706 11.3109 73.9703 11.3109C72.5277 11.3109 71.3044 11.8115 70.3055 12.8104C69.3066 13.8118 68.8059 15.0455 68.8059 16.5037C68.8059 17.9619 69.3066 19.1983 70.3055 20.1972C71.3043 21.1959 72.5277 21.6967 73.9703 21.6967C75.4854 21.6967 76.6933 21.2114 77.6225 20.2254C78.4406 19.4048 78.8587 18.295 78.8587 16.9064C78.8587 16.6716 78.8303 16.4211 78.789 16.1578L78.7891 16.1576ZM80.6559 11.5326V21.4746H86.4603V20.2537H81.9334V17.0999H86.0165V15.9075H81.9334V12.7561H86.4603V11.5326L80.6559 11.5326ZM94.5996 12.7561V11.5326H87.7677V12.7561H90.5449V21.4746H91.8225V12.7561H94.5996ZM100.785 11.5326H99.5072V21.4746H100.785V11.5326ZM109.217 12.7561V11.5326H102.386V12.7561H105.163V21.4746H106.44V12.7561H109.217ZM122.109 12.8258C121.123 11.8115 119.915 11.3108 118.473 11.3108C117.027 11.3108 115.82 11.8115 114.833 12.8103C113.847 13.7963 113.362 15.0325 113.362 16.5036C113.362 17.9747 113.848 19.2111 114.833 20.1971C115.819 21.1958 117.027 21.6966 118.473 21.6966C119.902 21.6966 121.123 21.1958 122.109 20.1971C123.095 19.2111 123.58 17.9748 123.58 16.5036C123.58 15.0454 123.095 13.8116 122.109 12.8258ZM115.75 13.6569C116.485 12.9084 117.389 12.5341 118.473 12.5341C119.554 12.5341 120.457 12.9084 121.18 13.6569C121.916 14.3924 122.277 15.3524 122.277 16.5036C122.277 17.6574 121.916 18.6148 121.18 19.3504C120.457 20.0989 119.554 20.4756 118.473 20.4756C117.389 20.4756 116.485 20.0988 115.75 19.3504C115.03 18.5993 114.668 17.6573 114.668 16.5036C114.668 15.3524 115.03 14.4079 115.75 13.6569ZM126.616 15.2829L126.561 13.3651H126.616L131.669 21.4745H133.003V11.5325H131.726V17.35L131.78 19.2678H131.726L126.894 11.5325H125.338V21.4745H126.616V15.2829Z" fill="white" stroke="white" stroke-width="0.26666" stroke-miterlimit="10"/>
</g>
<defs>
<clipPath id="clip0_1_751">
<rect width="223" height="66.0737" fill="white" transform="translate(0.5)"/>
</clipPath>
</defs>
</svg>
