<svg width="153" height="124" viewBox="0 0 153 124" fill="none" xmlns="http://www.w3.org/2000/svg">
<circle cx="76.5" cy="58" r="52" fill="#EAEAEA"/>
<circle cx="21.5" cy="25" r="5" fill="#BDBDBD"/>
<circle cx="18.5" cy="109" r="7" fill="#BDBDBD"/>
<circle cx="145.5" cy="41" r="7" fill="#BDBDBD"/>
<circle cx="134.5" cy="14" r="4" fill="#BDBDBD"/>
<g filter="url(#filter0_b_5517_86728)">
<rect x="52.5" y="34" width="48" height="48" rx="24" fill="#9D9D9D"/>
<path d="M66.8514 59.2135C66.4984 56.9162 66.3219 55.7676 66.7562 54.7494C67.1905 53.7311 68.154 53.0344 70.0811 51.6411L71.521 50.6C73.9183 48.8667 75.1169 48 76.5 48C77.8831 48 79.0817 48.8667 81.479 50.6L82.9189 51.6411C84.846 53.0344 85.8095 53.7311 86.2438 54.7494C86.6781 55.7676 86.5016 56.9162 86.1486 59.2135L85.8476 61.1724C85.3471 64.4289 85.0969 66.0572 83.929 67.0286C82.7611 68 81.0537 68 77.6388 68H75.3612C71.9463 68 70.2389 68 69.071 67.0286C67.9031 66.0572 67.6529 64.4289 67.1524 61.1724L66.8514 59.2135Z" stroke="white" stroke-width="2" stroke-linejoin="round"/>
<path d="M74.5 64H78.5" stroke="white" stroke-width="1.5" stroke-linecap="round" stroke-linejoin="round"/>
</g>
<defs>
<filter id="filter0_b_5517_86728" x="44.5" y="26" width="64" height="64" filterUnits="userSpaceOnUse" color-interpolation-filters="sRGB">
<feFlood flood-opacity="0" result="BackgroundImageFix"/>
<feGaussianBlur in="BackgroundImageFix" stdDeviation="4"/>
<feComposite in2="SourceAlpha" operator="in" result="effect1_backgroundBlur_5517_86728"/>
<feBlend mode="normal" in="SourceGraphic" in2="effect1_backgroundBlur_5517_86728" result="shape"/>
</filter>
</defs>
</svg>
