           <svg width="20" height="20" viewBox="0 0 20 20" fill="none" xmlns="http://www.w3.org/2000/svg">
<path d="M1.66699 15.0001C1.66699 13.7164 1.66699 13.0745 1.95593 12.603C2.11761 12.3392 2.33943 12.1173 2.60327 11.9557C3.07478 11.6667 3.71663 11.6667 5.00033 11.6667C6.28403 11.6667 6.92588 11.6667 7.39738 11.9557C7.66122 12.1173 7.88304 12.3392 8.04472 12.603C8.33366 13.0745 8.33366 13.7164 8.33366 15.0001C8.33366 16.2837 8.33366 16.9257 8.04472 17.3972C7.88304 17.661 7.66122 17.8828 7.39738 18.0445C6.92588 18.3334 6.28403 18.3334 5.00033 18.3334C3.71663 18.3334 3.07478 18.3334 2.60327 18.0445C2.33943 17.8828 2.11761 17.661 1.95593 17.3972C1.66699 16.9257 1.66699 16.2837 1.66699 15.0001Z" stroke="#D0D5DD"/>
<path d="M11.667 15.0001C11.667 13.7164 11.667 13.0745 11.9559 12.603C12.1176 12.3392 12.3394 12.1173 12.6032 11.9557C13.0747 11.6667 13.7167 11.6667 15.0003 11.6667C16.284 11.6667 16.9259 11.6667 17.3974 11.9557C17.6612 12.1173 17.8831 12.3392 18.0447 12.603C18.3337 13.0745 18.3337 13.7164 18.3337 15.0001C18.3337 16.2837 18.3337 16.9257 18.0447 17.3972C17.8831 17.661 17.6612 17.8828 17.3974 18.0445C16.9259 18.3334 16.284 18.3334 15.0003 18.3334C13.7167 18.3334 13.0747 18.3334 12.6032 18.0445C12.3394 17.8828 12.1176 17.661 11.9559 17.3972C11.667 16.9257 11.667 16.2837 11.667 15.0001Z" stroke="#D0D5DD" stroke-width="1.5"/>
<path d="M1.66699 5.00008C1.66699 3.71638 1.66699 3.07453 1.95593 2.60302C2.11761 2.33919 2.33943 2.11736 2.60327 1.95569C3.07478 1.66675 3.71663 1.66675 5.00033 1.66675C6.28403 1.66675 6.92588 1.66675 7.39738 1.95569C7.66122 2.11736 7.88304 2.33919 8.04472 2.60302C8.33366 3.07453 8.33366 3.71638 8.33366 5.00008C8.33366 6.28378 8.33366 6.92563 8.04472 7.39714C7.88304 7.66097 7.66122 7.8828 7.39738 8.04447C6.92588 8.33341 6.28403 8.33341 5.00033 8.33341C3.71663 8.33341 3.07478 8.33341 2.60327 8.04447C2.33943 7.8828 2.11761 7.66097 1.95593 7.39714C1.66699 6.92563 1.66699 6.28378 1.66699 5.00008Z" stroke="#D0D5DD" stroke-width="1.5"/>
<path d="M11.667 5.00008C11.667 3.71638 11.667 3.07453 11.9559 2.60302C12.1176 2.33919 12.3394 2.11736 12.6032 1.95569C13.0747 1.66675 13.7167 1.66675 15.0003 1.66675C16.284 1.66675 16.9259 1.66675 17.3974 1.95569C17.6612 2.11736 17.8831 2.33919 18.0447 2.60302C18.3337 3.07453 18.3337 3.71638 18.3337 5.00008C18.3337 6.28378 18.3337 6.92563 18.0447 7.39714C17.8831 7.66097 17.6612 7.8828 17.3974 8.04447C16.9259 8.33341 16.284 8.33341 15.0003 8.33341C13.7167 8.33341 13.0747 8.33341 12.6032 8.04447C12.3394 7.8828 12.1176 7.66097 11.9559 7.39714C11.667 6.92563 11.667 6.28378 11.667 5.00008Z" stroke="#D0D5DD" stroke-width="1.5"/>
</svg>