<svg width="20" height="20" viewBox="0 0 20 20" fill="none" xmlns="http://www.w3.org/2000/svg">
<path d="M9.99848 1.66602C7.49201 1.66602 5.8668 3.34851 3.94474 3.96177C3.16322 4.21112 2.77246 4.3358 2.61432 4.51156C2.45617 4.68732 2.40987 4.94414 2.31725 5.45779C1.32617 10.9543 3.4924 16.036 8.65857 18.0139C9.21365 18.2264 9.49115 18.3327 10.0012 18.3327C10.5112 18.3327 10.7888 18.2264 11.3438 18.0139C16.5096 16.0359 18.6738 10.9543 17.6825 5.45779C17.5898 4.94405 17.5435 4.68718 17.3853 4.51142C17.2271 4.33567 16.8364 4.21106 16.0549 3.96184C14.1321 3.34864 12.5051 1.66602 9.99848 1.66602Z" stroke="#1D2739" stroke-width="1.5" stroke-linecap="round" stroke-linejoin="round"/>
<path d="M8.61423 8.65039C7.71426 8.65039 7.26426 9.30039 7.16426 9.70039C7.06426 10.1004 7.06426 11.5504 7.12426 12.1504C7.32426 12.9004 7.82426 13.2104 8.31426 13.3104C8.76423 13.3504 10.6642 13.3354 11.2142 13.3354C12.0142 13.3504 12.6142 13.0504 12.8642 12.1504C12.9142 11.8504 12.9642 10.2004 12.8392 9.70039C12.5742 8.90039 11.9142 8.65039 11.4142 8.65039H8.61423Z" fill="white" stroke="#1D2739" stroke-width="1.5" stroke-linecap="round"/>
<path d="M8.54169 8.29944C8.54169 8.24944 8.54852 7.96159 8.54969 7.59944C8.55077 7.26853 8.52169 6.94944 8.67969 6.65744C9.27169 5.47944 10.9717 5.59944 11.3917 6.79944C11.4644 6.997 11.4689 7.3102 11.4667 7.59944C11.4639 7.96901 11.4717 8.29944 11.4717 8.29944" stroke="#1D2739" stroke-width="1.5" stroke-linecap="round"/>
</svg>
