<svg width="142" height="54" viewBox="0 0 142 54" fill="none" xmlns="http://www.w3.org/2000/svg">
<path d="M135.707 23.8865C135.652 24.0472 135.345 24.9371 134.786 26.5566C134.227 28.1765 133.867 29.2846 133.707 29.8811L131.533 23.8865H129.427L132.752 32.0023C132.571 32.5187 132.471 32.802 132.451 32.8521C132.27 33.3134 132.042 33.6344 131.766 33.8149C131.49 33.9954 131.124 34.0857 130.668 34.0857C130.312 34.0857 130.019 34.0733 129.788 34.0481L129.886 35.5749C130.225 35.6138 130.567 35.6339 130.909 35.6351C131.761 35.6351 132.458 35.4358 133 35.0372C133.541 34.6385 133.99 33.9754 134.346 33.0478C134.366 32.9975 135.522 29.944 137.814 23.8865H135.707ZM126.286 25.1502L126.03 23.8865H124.376V32.1527H126.346V27.6699C126.346 26.9829 126.525 26.4466 126.884 26.0603C127.242 25.6742 127.785 25.4811 128.512 25.4811C128.728 25.4811 128.936 25.4961 129.137 25.5262L129.167 23.8791C129.031 23.8591 128.856 23.849 128.64 23.849C127.612 23.849 126.827 24.2827 126.286 25.1502ZM122.168 30.7612C121.681 30.7612 121.348 30.6284 121.167 30.3626C120.987 30.0968 120.897 29.6507 120.897 29.0238V25.0824H122.95V23.8865H120.897L120.64 21.6376L119.437 21.6452L119.061 23.8865L117.647 24.0145L117.572 25.0824H118.926V28.9861C118.926 29.5578 118.97 30.0381 119.058 30.4265C119.145 30.8151 119.295 31.1522 119.505 31.4382C119.716 31.724 120.008 31.9335 120.381 32.0662C120.755 32.1989 121.223 32.2655 121.784 32.2655C121.925 32.2655 122.075 32.258 122.235 32.243C122.368 32.2315 122.499 32.2152 122.63 32.1941C122.733 32.1765 122.841 32.1565 122.954 32.1338C123.067 32.1113 123.128 32.1 123.138 32.1L123.085 30.6859C122.759 30.7362 122.453 30.7612 122.168 30.7612ZM113.815 23.6834C112.787 23.6834 111.852 24.0998 111.009 24.932L110.791 23.8865H109.204V32.1527H111.175V28.1287C111.175 27.3163 111.223 26.7147 111.318 26.3236C111.478 25.9927 111.735 25.718 112.089 25.4999C112.442 25.2818 112.832 25.1727 113.258 25.1727C113.805 25.1727 114.184 25.3381 114.394 25.6692C114.605 26.0001 114.713 26.4991 114.718 27.1659V32.1527H116.696V26.9252C116.696 25.8723 116.456 25.0688 115.978 24.5146C115.499 23.9605 114.778 23.6834 113.815 23.6834ZM105.59 29.0689C105.59 29.6907 105.463 30.1383 105.21 30.4115C104.957 30.6849 104.555 30.8213 104.003 30.8213C103.441 30.8213 103.032 30.6836 102.773 30.4078C102.515 30.132 102.386 29.6856 102.386 29.0689V23.8865H100.408V29.1441C100.408 30.1821 100.735 30.9694 101.389 31.506C102.044 32.0425 102.907 32.3106 103.981 32.3106C105.053 32.3106 105.918 32.0411 106.575 31.5021C107.232 30.9631 107.561 30.1772 107.561 29.1441V23.8865H105.59V29.0689ZM96.6807 30.0843C96.3447 30.5707 95.8432 30.8139 95.1764 30.8139C94.5045 30.8139 93.9981 30.5707 93.6571 30.0843C93.3161 29.598 93.1457 28.9034 93.1457 28.0008C93.1457 27.0833 93.3148 26.3825 93.6534 25.8985C93.9919 25.4147 94.4944 25.1727 95.1614 25.1727C95.8384 25.1727 96.3447 25.4133 96.6807 25.8948C97.0166 26.3761 97.1847 27.0757 97.1847 27.9934C97.1847 28.901 97.0166 29.598 96.6807 30.0843ZM95.2065 23.6834C93.9278 23.6834 92.9376 24.0684 92.2356 24.838C91.5334 25.6078 91.1825 26.6596 91.1825 27.9934C91.1825 29.2869 91.5334 30.3299 92.2356 31.1222C92.9376 31.9146 93.9004 32.3106 95.1239 32.3106C96.3974 32.3106 97.3878 31.9208 98.0948 31.1411C98.8019 30.3614 99.1553 29.3122 99.1553 27.9934C99.1553 26.6897 98.8056 25.6455 98.1061 24.8607C97.4066 24.0759 96.4401 23.6834 95.2065 23.6834ZM87.6223 22.623C88.4897 22.623 89.3522 22.8862 90.2098 23.4126L90.849 21.8708C89.9564 21.2741 88.8658 20.9758 87.5772 20.9758C85.9826 20.9758 84.6927 21.4886 83.7074 22.5139C82.722 23.5393 82.2295 24.8996 82.2295 26.5943C82.2295 28.3795 82.7006 29.7785 83.6434 30.7912C84.5861 31.8041 85.8623 32.3106 87.4719 32.3106C88.7403 32.3106 89.796 32.06 90.6384 31.5585L90.3676 29.964C89.46 30.4253 88.5448 30.6559 87.6223 30.6559C86.5692 30.6559 85.7582 30.3074 85.1891 29.6104C84.62 28.9135 84.3355 27.9282 84.3355 26.6545C84.3355 25.426 84.63 24.4469 85.2192 23.7174C85.8083 22.9878 86.6094 22.623 87.6223 22.623ZM81.7449 23.8865H79.3981C79.2477 24.0421 78.9255 24.3705 78.4316 24.8718C77.9377 25.3733 77.5291 25.7971 77.2056 26.1431C76.8978 26.4716 76.5981 26.8076 76.3068 27.1509C76.2968 27.1609 76.243 27.2137 76.1451 27.3089L75.991 27.4593L76.0361 25.7895V21.1338H74.0655V32.1527H76.0361V29.0463L76.8559 28.3995L79.5786 32.1527H81.9629L78.3452 27.4067L81.7449 23.8865ZM70.6174 25.1803C71.2042 25.1803 71.8382 25.3583 72.5202 25.7143L72.9867 24.3078C72.3197 23.8916 71.5024 23.6834 70.5346 23.6834C69.3261 23.6834 68.352 24.0571 67.6126 24.8042C66.8728 25.5513 66.5031 26.6018 66.5031 27.9557C66.5031 29.3547 66.8553 30.4302 67.5599 31.1823C68.2644 31.9346 69.2485 32.3106 70.5121 32.3106C71.0235 32.3106 71.4647 32.2605 71.8359 32.1602C72.207 32.06 72.5655 31.8945 72.9115 31.6638L72.7234 30.1671C72.0564 30.5934 71.362 30.8063 70.6399 30.8063C69.948 30.8063 69.4127 30.5656 69.0341 30.0843C68.6555 29.603 68.4663 28.901 68.4663 27.9783C68.4663 27.0657 68.658 26.3713 69.0416 25.8948C69.4252 25.4184 69.9504 25.1803 70.6174 25.1803ZM63.3484 29.7909C63.203 30.102 62.9611 30.3664 62.6226 30.5844C62.2842 30.8026 61.8866 30.9116 61.4306 30.9116C61.0494 30.9116 60.756 30.8176 60.5504 30.6295C60.3448 30.4416 60.2421 30.1721 60.2421 29.821C60.2421 29.3096 60.4274 28.9386 60.7987 28.7079C61.1697 28.4773 61.7539 28.3269 62.5511 28.2565C62.5711 28.2565 62.7054 28.2466 62.9535 28.2264C63.2017 28.2066 63.3334 28.1963 63.3484 28.1963V29.7909ZM62.1299 23.6834C60.9967 23.6834 59.9436 23.8916 58.9709 24.3078C58.9758 24.3179 59.0585 24.5436 59.2191 24.9847C59.3795 25.426 59.4623 25.6542 59.4672 25.6692C60.4552 25.293 61.2849 25.1051 61.957 25.1051C62.4283 25.1051 62.7793 25.2192 63.0099 25.4473C63.2405 25.6756 63.356 26.0403 63.356 26.5416V26.9778C63.2255 26.9929 63.0476 27.0105 62.8218 27.0305C62.5962 27.0507 62.3932 27.0707 62.2127 27.0907C62.0322 27.1109 61.8641 27.1309 61.7087 27.1509C60.5755 27.2613 59.7281 27.5232 59.1664 27.9369C58.6049 28.3506 58.3241 28.9861 58.3241 29.8436C58.3241 30.6408 58.561 31.2515 59.0348 31.6751C59.5088 32.0989 60.1292 32.3106 60.8963 32.3106C61.458 32.3106 61.9356 32.2166 62.3293 32.0285C62.7229 31.8406 63.1253 31.546 63.5365 31.1448C63.5365 31.165 63.5891 31.3327 63.6944 31.6488C63.7997 31.9646 63.8547 32.1327 63.8599 32.1527H65.319V26.7598C65.319 25.6768 65.0658 24.8932 64.5594 24.4093C64.0529 23.9255 63.2431 23.6834 62.1299 23.6834ZM56.6272 30.7612C56.1206 30.7612 55.7797 30.6295 55.6042 30.3664C55.4287 30.1031 55.341 29.6005 55.341 28.8583V21.1338H53.3704V28.8958C53.3704 29.4927 53.4129 29.9916 53.4982 30.3927C53.5833 30.7939 53.7338 31.1398 53.9495 31.4307C54.165 31.7215 54.4596 31.9335 54.8332 32.0662C55.2067 32.1989 55.6769 32.2655 56.2435 32.2655C56.3839 32.2655 56.5369 32.2568 56.7024 32.2393C56.8678 32.2216 57.0043 32.2041 57.1122 32.1865C57.22 32.1689 57.3329 32.1478 57.4507 32.1227C57.5686 32.0975 57.63 32.085 57.6351 32.085L57.5824 30.6785C57.1963 30.7337 56.8778 30.7612 56.6272 30.7612ZM47.9824 30.6785H46.2148V27.1057H47.9297C48.7471 27.1057 49.3514 27.2411 49.7425 27.512C50.1337 27.7828 50.3292 28.2264 50.3292 28.8433C50.3292 30.0668 49.5469 30.6785 47.9824 30.6785ZM46.2148 22.6305H47.5462C48.3935 22.6305 49.0116 22.7384 49.4002 22.954C49.7888 23.1697 49.9831 23.5657 49.9831 24.1424C49.9831 25.1703 49.3087 25.6842 47.9598 25.6842H46.2148V22.6305ZM50.3066 26.2709C50.5823 26.1857 50.823 26.0666 51.0286 25.9136C51.2342 25.7607 51.3946 25.6041 51.5101 25.4434C51.6278 25.2783 51.7214 25.0973 51.7883 24.9058C51.8585 24.7078 51.9036 24.531 51.9236 24.3755C51.9438 24.2201 51.9539 24.0622 51.9539 23.9016C51.9539 22.9088 51.5952 22.1992 50.8782 21.7731C50.1611 21.3468 49.073 21.1338 47.6138 21.1338H44.1766V32.1527H48.2608C49.5593 32.1527 50.5761 31.8795 51.3107 31.3327C52.0452 30.7864 52.4126 29.994 52.4126 28.956C52.4126 28.2691 52.2321 27.6913 51.8711 27.2224C51.5101 26.7536 50.9884 26.4363 50.3066 26.2709ZM8.1655 42.2191C8.1655 41.5776 9.52855 41.2786 10.4498 41.2786C10.7111 41.2786 11.1498 41.3312 11.1498 41.6827C11.1498 42.3705 9.73184 42.7457 9.00333 42.7457C8.61675 42.7457 8.1655 42.6077 8.1655 42.2191ZM11.6127 41.6827C11.6127 41.2636 11.3072 40.8158 10.4498 40.8158C9.49955 40.8158 7.70247 41.1091 7.70247 42.2191C7.70247 42.811 8.22536 43.2086 9.00333 43.2086C9.91312 43.2086 11.6127 42.7611 11.6127 41.6827ZM5.20495 46.3678C6.38951 46.7929 8.18597 47.2337 10.5424 47.2337C14.2544 47.2337 19.1894 46.7972 19.1894 43.0232C19.1894 41.5801 18.2838 40.9423 17.5561 40.4298C16.9161 39.979 16.5218 39.6718 16.4813 39.0602C16.4547 38.6571 16.6445 38.2914 16.8645 37.8682C17.1112 37.3936 17.3908 36.8556 17.3908 36.1754C17.3908 35.2521 16.706 34.2582 15.2026 34.2582C14.0082 34.2582 12.9062 34.7253 11.7398 35.22C10.2397 35.8561 8.53907 36.5771 6.13598 36.5771C5.80398 36.5771 5.49461 36.5545 5.20495 36.5142V33.9709C5.75528 34.0393 6.3093 34.0736 6.86386 34.0737C9.73898 34.0737 11.7546 33.1042 13.5329 32.2489C15.0476 31.5202 16.4782 30.8322 18.2269 30.8322C20.6441 30.8322 21.9087 32.2016 21.9087 33.5542C21.9087 34.4629 21.4373 35.0164 20.9383 35.6021C20.4241 36.2056 19.8924 36.8297 19.8924 37.842C19.8924 38.8135 20.274 39.3356 20.643 39.8405C21.0738 40.4298 21.5193 41.0394 21.5193 42.4871C21.5193 45.2498 18.904 46.9599 16.3553 47.9704H5.20495V46.3678ZM5.20495 44.0927C6.34643 44.5038 7.55047 44.7144 8.76376 44.7149C10.8637 44.7149 14.3865 44.2516 14.3865 41.1488C14.3865 40.2361 13.6535 38.9504 12.0238 38.9504C10.9266 38.9504 10.0621 39.2389 9.22617 39.5178C8.37578 39.8015 7.57268 40.0694 6.5193 40.0694C6.05922 40.0694 5.61836 39.9902 5.20495 39.8641V37.5413C5.51396 37.5776 5.82484 37.5957 6.13598 37.5955C8.74624 37.5955 10.6264 36.7983 12.1373 36.1577C13.2522 35.6849 14.215 35.2766 15.2026 35.2766C16.065 35.2766 16.3723 35.7409 16.3723 36.1754C16.3723 36.6068 16.1724 36.9913 15.9608 37.3987C15.7071 37.8868 15.4196 38.4401 15.465 39.1277C15.5399 40.2553 16.2994 40.7903 16.9695 41.2624C17.6408 41.7352 18.1709 42.1084 18.1709 43.0232C18.1709 44.3935 17.3801 46.2152 10.5424 46.2152C8.08332 46.2152 6.27197 45.6965 5.20495 45.2743V44.0927ZM5.20495 40.3504C5.62099 40.4645 6.06077 40.5325 6.5193 40.5325C7.64789 40.5325 8.5248 40.2398 9.37271 39.957C10.2105 39.6774 11.0017 39.4135 12.0238 39.4135C13.4592 39.4135 13.9236 40.5827 13.9236 41.1488C13.9236 43.179 12.1394 44.2521 8.76376 44.2521C7.31744 44.2521 6.09178 43.9298 5.20495 43.5932V40.3504ZM5.20495 31.5078C5.62236 31.6006 6.04859 31.648 6.47619 31.6492C9.18104 31.6492 11.2604 30.5163 13.4617 29.317C15.6817 28.1075 17.9773 26.8569 21.0047 26.8569C22.4063 26.8569 23.6007 27.2622 24.4582 28.0292C25.2909 28.7738 25.7311 29.7886 25.7311 30.9637C25.7311 32.1966 24.9741 33.3061 24.1727 34.4806C23.3018 35.7573 22.401 37.0772 22.401 38.6786C22.401 42.0712 25.1502 44.0567 29.9625 44.1646V45.3842C29.9418 45.3859 29.9214 45.3904 29.902 45.3977C26.4117 46.7448 24.156 44.3409 24.0548 44.2283C24.033 44.1979 24.0042 44.1732 23.9708 44.1564C23.9373 44.1396 23.9003 44.1311 23.8629 44.1317C23.8255 44.1323 23.7887 44.142 23.7559 44.1599C23.723 44.1778 23.695 44.2034 23.6742 44.2345C23.6476 44.275 23.6347 44.323 23.6374 44.3713H23.6357C23.6357 44.3777 23.6188 45.0345 23.043 46.0025C22.7278 46.5326 22.1968 47.2266 21.3142 47.9704H17.5406C18.0745 47.718 18.647 47.4082 19.1938 47.0354C21.044 45.7734 21.9822 44.2432 21.9822 42.4871C21.9822 40.8882 21.4692 40.1865 21.0168 39.5673C20.6618 39.0818 20.3552 38.6623 20.3552 37.842C20.3552 37.0002 20.8096 36.4669 21.2906 35.9023C21.822 35.2786 22.3716 34.6335 22.3716 33.5542C22.3716 31.9715 20.9479 30.3691 18.2269 30.3691C16.3726 30.3691 14.8958 31.0795 13.3322 31.8316C11.5137 32.7063 9.63338 33.6107 6.86386 33.6107C6.23553 33.6107 5.67062 33.5634 5.20495 33.5029V31.5078ZM5.20495 27.1862C5.73683 27.5517 6.52535 27.8632 7.67223 27.8632C10.2526 27.8632 12.1799 26.7117 14.2204 25.4924C16.2942 24.2534 18.4384 22.9723 21.3748 22.9723C24.0328 22.9723 26.33 23.9081 28.2023 25.7535C29.0818 26.6205 29.6553 27.4956 29.9625 28.0317V30.8114C29.9573 30.8277 29.953 30.8444 29.9496 30.8612C29.8403 31.3921 28.9976 32.0778 28.1055 32.8037C26.4083 34.1847 24.296 35.9034 24.3057 38.5865C24.3098 39.7151 24.7872 40.7337 25.6156 41.3813C26.3883 41.9851 27.3414 42.1872 28.2705 42.1872C28.8619 42.187 29.4431 42.1048 29.9625 41.9929V43.7019C25.4444 43.5971 22.8641 41.7797 22.8641 38.6786C22.8641 37.2202 23.7238 35.9601 24.5551 34.7416C25.3608 33.5606 26.194 32.3394 26.194 30.9637C26.194 28.2731 24.06 26.3938 21.0047 26.3938C17.8593 26.3938 15.5112 27.6731 13.2403 28.9106C11.0921 30.0809 9.06304 31.1862 6.47619 31.1862C6.02479 31.1862 5.59758 31.1257 5.20495 31.0324V27.1862ZM5.20495 6.02907H29.9625V27.1532C29.546 26.5359 29.0698 25.9611 28.5407 25.4371C27.1902 24.1015 24.8508 22.5094 21.3748 22.5094C18.3107 22.5094 16.1106 23.8237 13.983 25.0951C11.9989 26.2806 10.1248 27.4004 7.67223 27.4004C6.66615 27.4004 5.85112 27.143 5.24976 26.6353C5.23426 26.6222 5.21983 26.6091 5.20495 26.5959V6.02907ZM29.9625 34.4274C29.6638 34.6738 29.3763 34.8962 29.0983 35.1111C27.896 36.04 26.9466 36.7738 26.9466 38.1365C26.9466 38.7625 27.1854 39.2472 27.6368 39.5382C27.9999 39.7722 28.4585 39.8599 28.9218 39.8599C29.28 39.8599 29.6405 39.8072 29.9625 39.7292V40.9482C28.3398 41.3397 27.0537 41.2127 26.2429 40.5788C25.662 40.1248 25.327 39.3972 25.3242 38.5828C25.3162 36.3862 27.1395 34.9026 28.7483 33.5936C29.1921 33.2325 29.61 32.8916 29.9625 32.5539V34.4274ZM29.9625 39.2505C29.2932 39.4296 28.4154 39.4888 27.8875 39.1491C27.5659 38.9418 27.4096 38.6105 27.4096 38.1365C27.4096 37.0011 28.2366 36.3619 29.3813 35.4774C29.5762 35.3274 29.7699 35.1759 29.9625 35.0229V39.2505ZM29.9625 47.9704H22.0182C23.4195 46.6651 23.8776 45.4819 24.0258 44.8382C24.329 45.1008 24.8344 45.4757 25.5272 45.7798C26.5057 46.2092 28.063 46.5669 29.9625 45.869V47.9704ZM4.18646 48.9888H30.9808V5.01059H4.18646V48.9888Z" fill="white"/>
</svg>
