<svg width="51" height="82" viewBox="0 0 51 82" fill="none" xmlns="http://www.w3.org/2000/svg">
<path d="M8.02152 69.0563C8.02152 67.8657 10.5512 67.3108 12.261 67.3108C12.746 67.3108 13.5601 67.4084 13.5601 68.0608C13.5601 69.3372 10.9285 70.0336 9.57647 70.0336C8.859 70.0336 8.02152 69.7775 8.02152 69.0563ZM14.4192 68.0608C14.4192 67.2829 13.8522 66.4517 12.261 66.4517C10.4974 66.4517 7.16217 66.9963 7.16217 69.0563C7.16217 70.1548 8.13261 70.8927 9.57647 70.8927C11.265 70.8927 14.4192 70.0621 14.4192 68.0608ZM2.52695 76.7559C4.72541 77.5448 8.05951 78.363 12.4328 78.363C19.3221 78.363 28.4811 77.5528 28.4811 70.5485C28.4811 67.8703 26.8004 66.6866 25.4498 65.7354C24.2621 64.8988 23.5302 64.3287 23.4551 63.1936C23.4056 62.4454 23.7578 61.7667 24.1662 60.9814C24.6241 60.1004 25.143 59.1021 25.143 57.8395C25.143 56.126 23.8721 54.2815 21.0819 54.2815C18.865 54.2815 16.82 55.1483 14.6552 56.0664C11.8711 57.2469 8.71483 58.5852 4.25488 58.5852C3.63871 58.5852 3.06455 58.5432 2.52695 58.4683V53.7482C3.54832 53.8751 4.57655 53.9389 5.60577 53.939C10.9418 53.939 14.6825 52.1397 17.983 50.5523C20.7941 49.1999 23.4493 47.923 26.6948 47.923C31.1809 47.923 33.5279 50.4645 33.5279 52.9749C33.5279 54.6614 32.653 55.6885 31.7269 56.7755C30.7725 57.8956 29.7857 59.054 29.7857 60.9327C29.7857 62.7357 30.4939 63.7048 31.1789 64.6418C31.9784 65.7354 32.8052 66.8667 32.8052 69.5536C32.8052 74.6809 27.9513 77.8547 23.2211 79.7303H2.52695V76.7559ZM2.52695 72.5334C4.64547 73.2965 6.88007 73.6873 9.13184 73.6883C13.0291 73.6883 19.5673 72.8284 19.5673 67.0699C19.5673 65.376 18.2069 62.9899 15.1821 62.9899C13.146 62.9899 11.5415 63.5252 9.99004 64.0429C8.41177 64.5693 6.92129 65.0666 4.9663 65.0666C4.11241 65.0666 3.29421 64.9195 2.52695 64.6856V60.3747C3.10046 60.442 3.67743 60.4756 4.25488 60.4751C9.09932 60.4751 12.5888 58.9956 15.3928 57.8067C17.462 56.9292 19.249 56.1714 21.0819 56.1714C22.6823 56.1714 23.2527 57.0331 23.2527 57.8395C23.2527 58.6401 22.8818 59.3539 22.4889 60.1099C22.0181 61.0159 21.4845 62.0427 21.5689 63.3188C21.7079 65.4117 23.1175 66.4046 24.361 67.2806C25.6069 68.1581 26.5909 68.8508 26.5909 70.5485C26.5909 73.0917 25.1231 76.4727 12.4328 76.4727C7.86899 76.4727 4.50726 75.5101 2.52695 74.7264V72.5334ZM2.52695 65.5881C3.2991 65.7999 4.11529 65.9259 4.9663 65.9259C7.06087 65.9259 8.68834 65.3829 10.262 64.8579C11.817 64.339 13.2853 63.8492 15.1821 63.8492C17.8463 63.8492 18.7082 66.0192 18.7082 67.0699C18.7082 70.8377 15.3968 72.8293 9.13184 72.8293C6.44758 72.8293 4.17285 72.2312 2.52695 71.6064V65.5881ZM2.52695 49.1769C3.30164 49.3492 4.09268 49.4372 4.88629 49.4394C9.90629 49.4394 13.7653 47.3367 17.8509 45.1109C21.9709 42.8661 26.2314 40.5451 31.85 40.5451C34.4514 40.5451 36.668 41.2974 38.2595 42.7208C39.805 44.1028 40.622 45.9861 40.622 48.167C40.622 50.4553 39.217 52.5144 37.7297 54.6942C36.1134 57.0636 34.4416 59.5133 34.4416 62.4854C34.4416 68.7817 39.5439 72.4667 48.4751 72.667V74.9305C48.4367 74.9336 48.3989 74.942 48.3628 74.9555C41.8851 77.4556 37.6986 72.9942 37.511 72.7852C37.4705 72.7288 37.4169 72.6829 37.3549 72.6517C37.2928 72.6205 37.2241 72.6047 37.1547 72.6059C37.0852 72.607 37.017 72.625 36.956 72.6582C36.895 72.6914 36.843 72.739 36.8044 72.7968C36.7552 72.8719 36.7313 72.9609 36.7362 73.0506H36.733C36.733 73.0624 36.7017 74.2815 35.6331 76.0779C35.048 77.0619 34.0626 78.3497 32.4245 79.7303H25.421C26.4119 79.2618 27.4744 78.6868 28.4892 77.9949C31.9231 75.6528 33.6643 72.8129 33.6643 69.5536C33.6643 66.5861 32.7123 65.2839 31.8725 64.1347C31.2137 63.2336 30.6447 62.4551 30.6447 60.9327C30.6447 59.3703 31.488 58.3806 32.3807 57.3327C33.367 56.1752 34.3869 54.978 34.3869 52.9749C34.3869 50.0374 31.7447 47.0636 26.6948 47.0636C23.2533 47.0636 20.5124 48.382 17.6105 49.7778C14.2356 51.4013 10.7458 53.0797 5.60577 53.0797C4.43963 53.0797 3.3912 52.9919 2.52695 52.8797V49.1769ZM2.52695 41.1563C3.51409 41.8347 4.97752 42.4129 7.10605 42.4129C11.8949 42.4129 15.472 40.2757 19.259 38.0128C23.1077 35.7133 27.0873 33.3355 32.537 33.3355C37.4701 33.3355 41.7335 35.0724 45.2083 38.4974C46.8407 40.1065 47.9049 41.7305 48.4751 42.7254V47.8844C48.4654 47.9147 48.4575 47.9456 48.4512 47.9768C48.2483 48.9622 46.6844 50.2348 45.0287 51.582C41.8788 54.1451 37.9585 57.3347 37.9766 62.3144C37.9841 64.409 38.8702 66.2995 40.4076 67.5013C41.8417 68.622 43.6105 68.997 45.3349 68.997C46.4326 68.9967 47.5112 68.8442 48.4751 68.6364V71.8082C40.0899 71.6136 35.301 68.2407 35.301 62.4854C35.301 59.7787 36.8965 57.44 38.4394 55.1786C39.9348 52.9867 41.4811 50.7203 41.4811 48.167C41.4811 43.1735 37.5205 39.6857 31.85 39.6857C26.0124 39.6857 21.6546 42.06 17.4399 44.3566C13.4531 46.5286 9.68727 48.58 4.88629 48.58C4.04852 48.58 3.25565 48.4678 2.52695 48.2945V41.1563ZM2.52695 1.89025H48.4751V41.095C47.7021 39.9493 46.8183 38.8825 45.8363 37.91C43.3299 35.4313 38.9882 32.4765 32.537 32.4765C26.8502 32.4765 22.767 34.9158 18.8184 37.2754C15.1361 39.4756 11.6578 41.5538 7.10605 41.5538C5.23884 41.5538 3.72619 41.0761 2.61012 40.1338C2.58134 40.1096 2.55458 40.0852 2.52695 40.0607V1.89025ZM48.4751 54.5955C47.9208 55.0528 47.3872 55.4655 46.8712 55.8644C44.6399 57.5883 42.8777 58.9501 42.8777 61.4792C42.8777 62.6411 43.321 63.5407 44.1587 64.0806C44.8327 64.5149 45.6837 64.6778 46.5437 64.6778C47.2085 64.6778 47.8776 64.5799 48.4751 64.4352V66.6975C45.4636 67.4242 43.0766 67.1885 41.5717 66.012C40.4937 65.1693 39.872 63.819 39.8668 62.3075C39.8519 58.2309 43.2358 55.4773 46.2216 53.048C47.0453 52.3777 47.8209 51.7452 48.4751 51.1183V54.5955ZM48.4751 63.5468C47.2329 63.8792 45.6037 63.9891 44.6241 63.3585C44.0272 62.9738 43.7371 62.359 43.7371 61.4792C43.7371 59.372 45.2719 58.1857 47.3964 56.5441C47.7582 56.2658 48.1177 55.9846 48.4751 55.7006V63.5468ZM48.4751 79.7303H33.7311C36.3319 77.3076 37.182 75.1118 37.4571 73.9171C38.0198 74.4044 38.9577 75.1003 40.2436 75.6646C42.0595 76.4615 44.9499 77.1255 48.4751 75.8301V79.7303ZM0.636719 81.6202H50.365V2.46426e-05H0.636719V81.6202Z" fill="#292929"/>
</svg>
