<svg width="20" height="21" viewBox="0 0 20 21" fill="none" xmlns="http://www.w3.org/2000/svg">
<path d="M17.3117 15.3511C17.9361 15.3511 18.4327 14.9582 18.8787 14.4087C19.7916 13.2839 18.2928 12.3851 17.7212 11.9449C17.14 11.4974 16.4912 11.2439 15.8333 11.1844M15 9.51774C16.1506 9.51774 17.0833 8.585 17.0833 7.43441C17.0833 6.28382 16.1506 5.35107 15 5.35107" stroke="#EBE5E0" stroke-width="1.5" stroke-linecap="round"/>
<path d="M2.687 15.3511C2.06258 15.3511 1.56592 14.9582 1.11999 14.4087C0.207104 13.2839 1.70592 12.3851 2.27757 11.9449C2.85867 11.4974 3.50751 11.2439 4.16536 11.1844M4.58203 9.51774C3.43144 9.51774 2.4987 8.585 2.4987 7.43441C2.4987 6.28382 3.43144 5.35107 4.58203 5.35107" stroke="#EBE5E0" stroke-width="1.5" stroke-linecap="round"/>
<path d="M6.7352 12.9437C5.88372 13.4702 3.65119 14.5453 5.01095 15.8905C5.67518 16.5477 6.41496 17.0177 7.34505 17.0177H12.6524C13.5824 17.0177 14.3222 16.5477 14.9864 15.8905C16.3462 14.5453 14.1137 13.4702 13.2622 12.9437C11.2654 11.709 8.73195 11.709 6.7352 12.9437Z" stroke="#EBE5E0" stroke-width="1.5" stroke-linecap="round" stroke-linejoin="round"/>
<path d="M12.9154 6.60112C12.9154 8.21195 11.6095 9.51778 9.9987 9.51778C8.38786 9.51778 7.08203 8.21195 7.08203 6.60112C7.08203 4.99028 8.38786 3.68445 9.9987 3.68445C11.6095 3.68445 12.9154 4.99028 12.9154 6.60112Z" stroke="#EBE5E0" stroke-width="1.5"/>
</svg>
