<svg width="20" height="21" viewBox="0 0 20 21" fill="none" xmlns="http://www.w3.org/2000/svg">
<path d="M11.8101 17.7599C15.296 17.5282 18.0726 14.7121 18.3011 11.1769C18.3458 10.485 18.3458 9.76853 18.3011 9.0767C18.0726 5.54143 15.296 2.72539 11.8101 2.49367C10.6209 2.41462 9.3793 2.41479 8.19247 2.49367C4.70662 2.72539 1.92998 5.54143 1.7015 9.0767C1.65679 9.76853 1.65679 10.485 1.7015 11.1769C1.78472 12.4644 2.35416 13.6566 3.02456 14.6633C3.41381 15.368 3.15692 16.2476 2.75147 17.0159C2.45914 17.5699 2.31297 17.8469 2.43033 18.047C2.5477 18.2471 2.80985 18.2535 3.33416 18.2663C4.37102 18.2915 5.0702 17.9975 5.6252 17.5883C5.93997 17.3562 6.09736 17.2401 6.20583 17.2268C6.3143 17.2134 6.52778 17.3014 6.95464 17.4772C7.3383 17.6352 7.78377 17.7327 8.19247 17.7599C9.3793 17.8388 10.6209 17.8389 11.8101 17.7599Z" stroke="#EBE5E0" stroke-width="1.5" stroke-linejoin="round"/>
<path d="M9.99759 10.3511H10.005M13.3272 10.3511H13.3347M6.66797 10.3511H6.67544" stroke="#EBE5E0" stroke-width="2" stroke-linecap="round" stroke-linejoin="round"/>
</svg>
