<svg width="41" height="40" viewBox="0 0 41 40" fill="none" xmlns="http://www.w3.org/2000/svg">
<rect x="0.333313" width="40" height="40" rx="8" fill="#5B8469"/>
<path d="M22 20.0002C22 20.9206 21.2538 21.6668 20.3334 21.6668C19.4129 21.6668 18.6667 20.9206 18.6667 20.0002C18.6667 19.0797 19.4129 18.3335 20.3334 18.3335C21.2538 18.3335 22 19.0797 22 20.0002Z" stroke="white" stroke-width="1.5"/>
<path d="M25 19.4281C24.7832 19.3967 24.5606 19.3729 24.3333 19.3569M16.3333 20.644C16.1059 20.6281 15.8834 20.6042 15.6666 20.5728" stroke="white" stroke-width="1.5" stroke-linecap="round" stroke-linejoin="round"/>
<path d="M20.3333 25.0002C19.445 25.4151 18.278 25.6668 17 25.6668C16.2893 25.6668 15.6131 25.589 15 25.4486C13.9997 25.2194 13.6666 24.6178 13.6666 23.5908V16.4095C13.6666 15.7529 14.36 15.302 15 15.4486C15.6131 15.589 16.2893 15.6668 17 15.6668C18.278 15.6668 19.445 15.4151 20.3333 15.0002C21.2216 14.5853 22.3886 14.3335 23.6666 14.3335C24.3772 14.3335 25.0535 14.4113 25.6666 14.5518C26.7211 14.7933 27 15.4137 27 16.4095V23.5908C27 24.2474 26.3066 24.6984 25.6666 24.5518C25.0535 24.4113 24.3772 24.3335 23.6666 24.3335C22.3886 24.3335 21.2216 24.5852 20.3333 25.0002Z" stroke="white" stroke-width="1.5"/>
</svg>
