<svg width="20" height="20" viewBox="0 0 20 20" fill="none" xmlns="http://www.w3.org/2000/svg">
<path d="M16.68 1.66602C15.7522 1.66602 15 3.90459 15 6.66602H16.68C17.4897 6.66602 17.8945 6.66602 18.1451 6.38647C18.3958 6.10692 18.3521 5.73879 18.2648 5.00252C18.0345 3.05887 17.4119 1.66602 16.68 1.66602Z" stroke="#1D2739" stroke-width="1.5"/>
<path d="M15 6.71123V15.5375C15 16.7973 15 17.4271 14.615 17.675C13.9859 18.0803 13.0134 17.2305 12.5243 16.9221C12.1201 16.6672 11.9181 16.5398 11.6938 16.5324C11.4514 16.5244 11.2458 16.6467 10.8091 16.9221L9.21669 17.9263C8.7871 18.1972 8.57235 18.3327 8.33335 18.3327C8.09436 18.3327 7.87957 18.1972 7.45002 17.9263L5.85763 16.9221C5.45348 16.6672 5.2514 16.5398 5.02713 16.5324C4.78479 16.5244 4.57913 16.6467 4.14241 16.9221C3.65331 17.2305 2.68075 18.0803 2.05165 17.675C1.66669 17.4271 1.66669 16.7973 1.66669 15.5375V6.71123C1.66669 4.33289 1.66669 3.14372 2.39892 2.40487C3.13115 1.66602 4.30966 1.66602 6.66669 1.66602H16.6667" fill="white"/>
<path d="M15 6.71123V15.5375C15 16.7973 15 17.4271 14.615 17.675C13.9859 18.0803 13.0134 17.2305 12.5243 16.9221C12.1201 16.6672 11.9181 16.5398 11.6938 16.5324C11.4514 16.5244 11.2458 16.6467 10.8091 16.9221L9.21669 17.9263C8.7871 18.1972 8.57235 18.3327 8.33335 18.3327C8.09436 18.3327 7.87957 18.1972 7.45002 17.9263L5.85763 16.9221C5.45348 16.6672 5.2514 16.5398 5.02713 16.5324C4.78479 16.5244 4.57913 16.6467 4.14241 16.9221C3.65331 17.2305 2.68075 18.0803 2.05165 17.675C1.66669 17.4271 1.66669 16.7973 1.66669 15.5375V6.71123C1.66669 4.33289 1.66669 3.14372 2.39892 2.40487C3.13115 1.66602 4.30966 1.66602 6.66669 1.66602H16.6667" stroke="#1D2739" stroke-width="1.5" stroke-linecap="round" stroke-linejoin="round"/>
<path d="M5 5H11.6667" stroke="#1D2739" stroke-width="1.5" stroke-linecap="round" stroke-linejoin="round"/>
<path d="M6.66667 8.33398H5" stroke="#1D2739" stroke-width="1.5" stroke-linecap="round" stroke-linejoin="round"/>
<path d="M10.4167 9.06315C9.72635 9.06315 9.16669 9.55282 9.16669 10.1569C9.16669 10.761 9.72635 11.2507 10.4167 11.2507C11.107 11.2507 11.6667 11.7403 11.6667 12.3444C11.6667 12.9485 11.107 13.4382 10.4167 13.4382M10.4167 9.06315C10.9609 9.06315 11.4239 9.36748 11.5955 9.79232M10.4167 9.06315V8.33398M10.4167 13.4382C9.87244 13.4382 9.40944 13.1338 9.23785 12.709M10.4167 13.4382V14.1673" stroke="#1D2739" stroke-width="1.5" stroke-linecap="round"/>
</svg>
