<svg width="153" height="124" viewBox="0 0 153 124" fill="none" xmlns="http://www.w3.org/2000/svg">
<circle cx="76.5" cy="58" r="52" fill="#EAEAEA"/>
<circle cx="21.5" cy="25" r="5" fill="#BDBDBD"/>
<circle cx="18.5" cy="109" r="7" fill="#BDBDBD"/>
<circle cx="145.5" cy="41" r="7" fill="#BDBDBD"/>
<circle cx="134.5" cy="14" r="4" fill="#BDBDBD"/>
<g filter="url(#filter0_b_5517_86738)">
<rect x="52.5" y="34" width="48" height="48" rx="24" fill="#9D9D9D"/>
<path d="M79 58C79 59.3807 77.8807 60.5 76.5 60.5C75.1193 60.5 74 59.3807 74 58C74 56.6193 75.1193 55.5 76.5 55.5C77.8807 55.5 79 56.6193 79 58Z" stroke="white" stroke-width="2"/>
<path d="M83.5 57.142C83.1749 57.0949 82.841 57.0591 82.5 57.0352M70.5 58.9658C70.159 58.942 69.8251 58.9061 69.5 58.859" stroke="white" stroke-width="1.5" stroke-linecap="round" stroke-linejoin="round"/>
<path d="M76.5 65.5C75.1675 66.1224 73.4171 66.5 71.5 66.5C70.4341 66.5 69.4197 66.3833 68.5 66.1726C66.9996 65.8289 66.5 64.9264 66.5 63.386V52.614C66.5 51.6291 67.54 50.9527 68.5 51.1726C69.4197 51.3832 70.4341 51.5 71.5 51.5C73.4171 51.5 75.1675 51.1224 76.5 50.5C77.8325 49.8776 79.5829 49.5 81.5 49.5C82.5659 49.5 83.5803 49.6167 84.5 49.8274C86.0817 50.1897 86.5 51.1204 86.5 52.614V63.386C86.5 64.3709 85.46 65.0473 84.5 64.8274C83.5803 64.6167 82.5659 64.5 81.5 64.5C79.5829 64.5 77.8325 64.8776 76.5 65.5Z" stroke="white" stroke-width="1.5"/>
</g>
<defs>
<filter id="filter0_b_5517_86738" x="44.5" y="26" width="64" height="64" filterUnits="userSpaceOnUse" color-interpolation-filters="sRGB">
<feFlood flood-opacity="0" result="BackgroundImageFix"/>
<feGaussianBlur in="BackgroundImageFix" stdDeviation="4"/>
<feComposite in2="SourceAlpha" operator="in" result="effect1_backgroundBlur_5517_86738"/>
<feBlend mode="normal" in="SourceGraphic" in2="effect1_backgroundBlur_5517_86738" result="shape"/>
</filter>
</defs>
</svg>
