<svg width="20" height="20" viewBox="0 0 20 20" fill="none" xmlns="http://www.w3.org/2000/svg">
<path d="M9.55883 18.3327C6.23126 18.3327 4.56748 18.3327 3.53374 17.3563C2.5 16.3801 2.5 14.8087 2.5 11.666V8.33268C2.5 5.18998 2.5 3.61864 3.53374 2.64232C4.56748 1.66602 6.23127 1.66602 9.55883 1.66602H10.4412C13.7687 1.66602 15.4325 1.66602 16.4663 2.64232C17.5 3.61864 17.5 5.18998 17.5 8.33268M9.58333 18.3327H10.8333" stroke="#1D2739" stroke-width="1.5" stroke-linecap="round"/>
<path d="M6.66669 5.83398H13.3334H6.66669Z" fill="white"/>
<path d="M6.66669 5.83398H13.3334" stroke="#1D2739" stroke-width="1.5" stroke-linecap="round"/>
<path d="M6.66669 10H10.8334" stroke="#1D2739" stroke-width="1.5" stroke-linecap="round"/>
<path d="M14.5833 15.492L13.8315 18.1197C13.7976 18.2516 13.9282 18.3661 14.0549 18.3155L15.7095 17.6547C15.789 17.623 15.8776 17.623 15.9571 17.6547L17.6276 18.3218C17.7511 18.3711 17.88 18.2631 17.8526 18.1331L17.2157 15.4099M18.3333 13.3299C18.3333 11.9515 17.2141 10.834 15.8333 10.834C14.4526 10.834 13.3333 11.9515 13.3333 13.3299C13.3333 14.7084 14.4526 15.8258 15.8333 15.8258C17.2141 15.8258 18.3333 14.7084 18.3333 13.3299Z" stroke="#1D2739" stroke-width="1.5" stroke-linejoin="round"/>
</svg>
