<svg width="20" height="20" viewBox="0 0 20 20" fill="none" xmlns="http://www.w3.org/2000/svg">
<path d="M14.1667 2.5H5.83335C3.53217 2.5 1.66669 4.36548 1.66669 6.66667V13.3333C1.66669 15.6345 3.53217 17.5 5.83335 17.5H14.1667C16.4679 17.5 18.3334 15.6345 18.3334 13.3333V6.66667C18.3334 4.36548 16.4679 2.5 14.1667 2.5Z" stroke="#1D2739" stroke-width="1.5" stroke-linejoin="round"/>
<path d="M4.16669 13.3327C5.17361 11.1818 8.92685 11.0403 10 13.3327H4.16669Z" fill="white"/>
<path d="M4.16669 13.3327C5.17361 11.1818 8.92685 11.0403 10 13.3327" stroke="#1D2739" stroke-width="1.5" stroke-linecap="round" stroke-linejoin="round"/>
<path d="M8.75002 7.50065C8.75002 8.42115 8.00383 9.16732 7.08335 9.16732C6.16288 9.16732 5.41669 8.42115 5.41669 7.50065C5.41669 6.58018 6.16288 5.83398 7.08335 5.83398C8.00383 5.83398 8.75002 6.58018 8.75002 7.50065Z" stroke="#1D2739" stroke-width="1.5"/>
<path d="M11.6667 7.5H15" stroke="#1D2739" stroke-width="1.5" stroke-linecap="round"/>
<path d="M11.6667 10.416H14.1667" stroke="#1D2739" stroke-width="1.5" stroke-linecap="round"/>
</svg>
