<svg width="20" height="21" viewBox="0 0 20 21" fill="none" xmlns="http://www.w3.org/2000/svg">
<path d="M1.66797 15.351C1.66797 14.0674 1.66797 13.4255 1.95691 12.954C2.11859 12.6901 2.34041 12.4683 2.60424 12.3066C3.07575 12.0177 3.7176 12.0177 5.0013 12.0177C6.285 12.0177 6.92685 12.0177 7.39836 12.3066C7.66219 12.4683 7.88402 12.6901 8.04569 12.954C8.33464 13.4255 8.33464 14.0674 8.33464 15.351C8.33464 16.6347 8.33464 17.2766 8.04569 17.7481C7.88402 18.0119 7.66219 18.2338 7.39836 18.3954C6.92685 18.6844 6.285 18.6844 5.0013 18.6844C3.7176 18.6844 3.07575 18.6844 2.60424 18.3954C2.34041 18.2338 2.11859 18.0119 1.95691 17.7481C1.66797 17.2766 1.66797 16.6347 1.66797 15.351Z" stroke="#EBE5E0" stroke-width="1.5"/>
<path d="M11.668 15.351C11.668 14.0674 11.668 13.4255 11.9569 12.954C12.1186 12.6901 12.3404 12.4683 12.6042 12.3066C13.0757 12.0177 13.7176 12.0177 15.0013 12.0177C16.285 12.0177 16.9269 12.0177 17.3984 12.3066C17.6622 12.4683 17.8841 12.6901 18.0457 12.954C18.3346 13.4255 18.3346 14.0674 18.3346 15.351C18.3346 16.6347 18.3346 17.2766 18.0457 17.7481C17.8841 18.0119 17.6622 18.2338 17.3984 18.3954C16.9269 18.6844 16.285 18.6844 15.0013 18.6844C13.7176 18.6844 13.0757 18.6844 12.6042 18.3954C12.3404 18.2338 12.1186 18.0119 11.9569 17.7481C11.668 17.2766 11.668 16.6347 11.668 15.351Z" stroke="#EBE5E0" stroke-width="1.5"/>
<path d="M1.66797 5.35103C1.66797 4.06733 1.66797 3.42548 1.95691 2.95398C2.11859 2.69014 2.34041 2.46832 2.60424 2.30664C3.07575 2.0177 3.7176 2.0177 5.0013 2.0177C6.285 2.0177 6.92685 2.0177 7.39836 2.30664C7.66219 2.46832 7.88402 2.69014 8.04569 2.95398C8.33464 3.42548 8.33464 4.06733 8.33464 5.35103C8.33464 6.63473 8.33464 7.27658 8.04569 7.74809C7.88402 8.01192 7.66219 8.23375 7.39836 8.39542C6.92685 8.68437 6.285 8.68437 5.0013 8.68437C3.7176 8.68437 3.07575 8.68437 2.60424 8.39542C2.34041 8.23375 2.11859 8.01192 1.95691 7.74809C1.66797 7.27658 1.66797 6.63473 1.66797 5.35103Z" stroke="#EBE5E0" stroke-width="1.5"/>
<path d="M11.668 5.35103C11.668 4.06733 11.668 3.42548 11.9569 2.95398C12.1186 2.69014 12.3404 2.46832 12.6042 2.30664C13.0757 2.0177 13.7176 2.0177 15.0013 2.0177C16.285 2.0177 16.9269 2.0177 17.3984 2.30664C17.6622 2.46832 17.8841 2.69014 18.0457 2.95398C18.3346 3.42548 18.3346 4.06733 18.3346 5.35103C18.3346 6.63473 18.3346 7.27658 18.0457 7.74809C17.8841 8.01192 17.6622 8.23375 17.3984 8.39542C16.9269 8.68437 16.285 8.68437 15.0013 8.68437C13.7176 8.68437 13.0757 8.68437 12.6042 8.39542C12.3404 8.23375 12.1186 8.01192 11.9569 7.74809C11.668 7.27658 11.668 6.63473 11.668 5.35103Z" stroke="#EBE5E0" stroke-width="1.5"/>
</svg>
