<svg width="20" height="20" viewBox="0 0 20 20" fill="none" xmlns="http://www.w3.org/2000/svg">
<path d="M1.66669 10.0007C1.66669 6.2687 1.66669 4.40273 2.82605 3.24335C3.98543 2.08398 5.8514 2.08398 9.58335 2.08398C13.3153 2.08398 15.1813 2.08398 16.3407 3.24335C17.5 4.40273 17.5 6.2687 17.5 10.0007C17.5 13.7326 17.5 15.5986 16.3407 16.758C15.1813 17.9173 13.3153 17.9173 9.58335 17.9173C5.8514 17.9173 3.98543 17.9173 2.82605 16.758C1.66669 15.5986 1.66669 13.7326 1.66669 10.0007Z" stroke="#1D2739" stroke-width="1.5" stroke-linejoin="round"/>
<path d="M10.3032 6.43573L11.0364 7.91435C11.1364 8.12019 11.4031 8.31761 11.628 8.3554L12.9571 8.57807C13.807 8.7209 14.0069 9.34257 13.3945 9.95582L12.3613 10.9977C12.1864 11.1741 12.0905 11.5143 12.1447 11.7579L12.4404 13.0475C12.6738 14.0683 12.1364 14.4632 11.2406 13.9297L9.99494 13.1862C9.76994 13.0517 9.3991 13.0517 9.17002 13.1862L7.9243 13.9297C7.03273 14.4632 6.49112 14.0641 6.72443 13.0475L7.02023 11.7579C7.0744 11.5143 6.97857 11.1741 6.80359 10.9977L5.77037 9.95582C5.1621 9.34257 5.35791 8.7209 6.20782 8.57807L7.53685 8.3554C7.75766 8.31761 8.02429 8.12019 8.12428 7.91435L8.85752 6.43573C9.25752 5.6334 9.90744 5.6334 10.3032 6.43573Z" fill="white" stroke="#1D2739" stroke-width="1.5" stroke-linecap="round" stroke-linejoin="round"/>
</svg>
