<svg width="41" height="40" viewBox="0 0 41 40" fill="none" xmlns="http://www.w3.org/2000/svg">
<rect x="0.666641" width="40" height="40" rx="8" fill="#E4D247"/>
<path d="M24.3333 24.7318C24.3333 24.0651 24.9333 23.8076 24.9333 23.3327C24.9333 22.3755 23.5833 22.2735 23.5833 23.1735M27.3333 23.666C27.3333 25.3229 25.9902 26.666 24.3333 26.666C22.6764 26.666 21.3333 25.3229 21.3333 23.666C21.3333 22.0091 22.6764 20.666 24.3333 20.666C25.9902 20.666 27.3333 22.0091 27.3333 23.666Z" stroke="white" stroke-width="1.15" stroke-linecap="round" stroke-linejoin="round"/>
<path d="M14.2539 13.6434C15.4767 12.3266 24.6742 15.5523 24.6666 16.7301C24.658 18.0656 21.0747 18.4764 20.0815 18.7551C19.4843 18.9226 19.3243 19.0944 19.1866 19.7207C18.5629 22.5571 18.2497 23.9679 17.536 23.9995C16.3984 24.0497 13.0605 14.9285 14.2539 13.6434Z" stroke="white" stroke-width="1.5"/>
</svg>
