<svg width="20" height="20" viewBox="0 0 20 20" fill="none" xmlns="http://www.w3.org/2000/svg">
<path d="M17.7633 5.95108L17.3519 5.23725C17.0409 4.69739 16.8854 4.42746 16.6207 4.31982C16.356 4.21219 16.0567 4.29712 15.4581 4.46699L14.4413 4.7534C14.0591 4.84154 13.6581 4.79154 13.3092 4.61225L13.0284 4.45027C12.7292 4.25861 12.499 3.97603 12.3716 3.64387L12.0934 2.81272C11.9104 2.2627 11.8189 1.9877 11.601 1.8304C11.3833 1.6731 11.0939 1.6731 10.5153 1.6731H9.58628C9.0077 1.6731 8.71836 1.6731 8.50053 1.8304C8.28274 1.9877 8.19125 2.2627 8.00827 2.81272L7.72997 3.64387C7.60257 3.97603 7.37241 4.25861 7.07317 4.45027L6.79244 4.61225C6.44348 4.79154 6.04252 4.84154 5.66035 4.7534L4.64349 4.46699C4.04487 4.29712 3.74557 4.21219 3.48092 4.31982C3.21627 4.42746 3.06074 4.69739 2.74966 5.23725L2.33834 5.95108C2.04675 6.45712 1.90095 6.71015 1.92925 6.9795C1.95754 7.24885 2.15272 7.4659 2.54308 7.90002L3.40228 8.86059C3.61228 9.12642 3.76137 9.58975 3.76137 10.0063C3.76137 10.4231 3.61233 10.8863 3.40231 11.1522L2.54308 12.1128C2.15272 12.5469 1.95755 12.7639 1.92925 13.0333C1.90095 13.3027 2.04675 13.5557 2.33834 14.0617L2.74965 14.7755C3.06072 15.3153 3.21627 15.5853 3.48092 15.6929C3.74557 15.8006 4.04488 15.7157 4.64351 15.5458L5.66031 15.2593C6.04256 15.1712 6.44359 15.2213 6.79259 15.4006L7.07328 15.5626C7.37245 15.7543 7.60256 16.0368 7.72995 16.3689L8.00827 17.2002C8.19125 17.7502 8.28274 18.0252 8.50053 18.1825C8.71836 18.3398 9.0077 18.3398 9.58628 18.3398H10.5153C11.0939 18.3398 11.3833 18.3398 11.601 18.1825C11.8189 18.0252 11.9104 17.7502 12.0934 17.2002L12.3717 16.3689C12.499 16.0368 12.7291 15.7543 13.0284 15.5626L13.309 15.4006C13.658 15.2213 14.059 15.1712 14.4413 15.2593L15.4581 15.5458C16.0567 15.7157 16.356 15.8006 16.6207 15.6929C16.8854 15.5853 17.0409 15.3153 17.3519 14.7755L17.7633 14.0617C18.0549 13.5557 18.2006 13.3027 18.1724 13.0333C18.144 12.7639 17.9489 12.5469 17.5585 12.1128L16.6993 11.1522C16.4893 10.8863 16.3402 10.4231 16.3402 10.0063C16.3402 9.58975 16.4894 9.12642 16.6993 8.86059L17.5585 7.90002C17.9489 7.4659 18.144 7.24885 18.1724 6.9795C18.2006 6.71015 18.0549 6.45712 17.7633 5.95108Z" stroke="#EBE5E0" stroke-width="1.5" stroke-linecap="round"/>
<path d="M12.931 9.99992C12.931 11.6108 11.6251 12.9166 10.0143 12.9166C8.40346 12.9166 7.09766 11.6108 7.09766 9.99992C7.09766 8.38909 8.40346 7.08325 10.0143 7.08325C11.6251 7.08325 12.931 8.38909 12.931 9.99992Z" stroke="#EBE5E0" stroke-width="1.5"/>
</svg>
