<svg width="44" height="24" viewBox="0 0 44 24" fill="none" xmlns="http://www.w3.org/2000/svg">
<path d="M7.06467 18.6548C10.541 17.6829 12.9867 14.2804 14.2565 11.0848C14.7439 9.85805 15.1768 8.46377 15.0306 7.11951C14.9809 6.66222 14.6888 5.61415 14.1679 5.40576C13.584 5.1722 13.095 6.35171 12.9919 6.59948C12.1499 8.62249 12.1801 10.9001 12.3064 13.0467C12.4277 15.1085 12.8546 17.0917 13.1751 19.1217C13.2479 19.5829 9.6444 19.0122 9.25118 18.7021C8.32193 17.9692 9.21937 16.5146 9.68257 15.8833C11.5196 13.3792 14.3543 12.4561 17.3235 13.3895C19.1553 13.9653 20.6877 15.1506 22.0629 16.4447C22.4424 16.8017 23.2008 18.0528 23.1857 17.532C23.1525 16.3851 22.7168 15.05 22.3939 13.9627C22.1648 13.1914 21.7502 12.4598 21.0701 13.3836C20.6387 13.9696 20.4856 14.7652 20.5974 15.4755C20.8206 16.8939 21.7755 15.5512 22.0984 15.0205C22.5315 14.3086 22.9276 13.51 23.1384 12.6981C23.3472 11.8944 22.8585 12.6027 22.7957 12.9463C22.4943 14.5959 23.9917 17.247 25.5554 15.1387C26.1387 14.3522 26.5255 13.0648 25.9514 12.1662C25.4172 11.3301 24.6832 12.1469 24.474 12.7572C23.8078 14.7002 24.6637 18.4032 27.3224 16.4919C28.533 15.6216 29.1268 14.0333 29.5325 12.6626C29.6613 12.2273 29.7053 11.3799 29.2843 12.2962C28.9043 13.1234 28.6672 14.112 28.8647 15.0205C29.1281 16.2322 30.3498 17.0692 31.5476 16.4801C32.072 16.2222 33.1228 14.9064 32.5759 14.2582C32.1618 13.7674 31.5216 15.9145 31.5063 16.0192C31.4567 16.3581 31.39 17.3466 31.9436 17.4611C32.9312 17.6654 33.1694 15.4298 33.1846 14.9318C33.1851 14.9145 33.1788 12.9826 32.5345 13.3895C31.5647 14.002 31.8706 16.1201 32.4341 16.8583C32.9212 17.4965 34.2104 18.0929 35.0165 17.6975C35.7776 17.3241 36.0188 16.1607 36.0447 15.4755C36.1105 13.7389 35.5713 11.1887 34.9929 9.64877C33.5414 5.78486 30.0405 -0.0512198 24.9349 1.10367C22.3462 1.68923 20.5966 3.91518 19.7582 6.28037C18.745 9.13877 19.0989 12.0615 19.0964 14.9909C19.0956 15.8717 19.1991 16.7667 19.0373 17.6325C18.7879 18.9662 18.1823 19.162 17.0694 19.6062C15.2659 20.3262 12.491 21.0108 10.6576 19.9963C9.89189 19.5725 9.06329 18.7658 9.63529 17.7447C10.5209 16.1638 12.8137 16.0096 14.2683 15.8892C16.9906 15.6638 19.8662 15.9878 22.5593 16.3324C23.7133 16.48 27.0671 16.8245 25.9514 17.1538C25.1772 17.3823 24.3474 17.3678 23.5403 17.3784C20.9331 17.4124 16.3241 17.263 13.8015 16.5392C12.0585 16.0392 10.0173 15.159 10.2321 12.9463C10.3402 11.8331 11.9421 9.93848 12.8323 9.37693C15.9643 7.40138 19.0384 10.2711 21.011 12.4499C23.2159 14.8852 24.8928 17.7249 26.7314 20.4277C26.9354 20.7275 27.3365 21.5747 27.4228 20.7645C27.6554 18.5813 27.5824 16.3266 27.5824 14.1341C27.5824 13.7381 27.5834 13.342 27.5706 12.9463C27.5609 12.6478 27.7119 11.9352 27.4405 12.0598C27.3272 12.1119 27.3346 12.2874 27.3046 12.4085C27.2279 12.7182 27.1656 13.0321 27.1214 13.3481C26.9788 14.3687 26.8898 15.5239 26.9205 16.551C26.9446 17.3553 26.9712 18.8707 27.5174 19.5885C27.7629 19.9113 28.153 16.9735 28.1615 16.8938C28.1619 16.89 28.2521 14.3996 28.5988 14.8137C29.1519 15.4743 29.3653 16.5194 30.2298 16.8938C31.0559 17.2515 31.814 16.4173 32.3336 15.9246C33.4231 14.8915 34.3755 13.6877 35.7256 12.9699C35.9896 12.8295 36.5766 12.3872 36.5766 12.6862C36.5766 12.8042 36.3499 12.7536 36.2338 12.7749C35.7468 12.864 35.2594 12.9541 34.7683 13.0172C28.4592 13.8277 22.0986 13.8986 15.7516 14.14C11.7588 14.2918 7.77822 14.5055 3.79673 14.8373C3.77045 14.8395 2.07765 15.0028 1.6575 15.0028C1.1022 15.0028 1.43336 14.8941 1.88206 14.7486C6.28693 13.3207 10.9852 12.6859 15.5625 12.1307C20.4534 11.5375 25.352 11.0752 30.2357 10.417C31.3157 10.2715 32.5451 10.0153 33.6573 10.0388C34.4284 10.0551 33.7127 11.4292 33.6219 11.658C32.9384 13.3796 32.0776 15.0903 30.7794 16.4388C28.5131 18.7929 25.3443 19.9259 22.2875 20.8354C21.1581 21.1715 19.9074 21.5708 18.73 21.7514C18.6742 21.7599 18.5328 21.7626 18.5645 21.7159C18.6561 21.581 18.8141 21.5033 18.9545 21.4204C19.8746 20.8775 21.4705 20.1137 22.3348 19.7185C25.4474 18.2954 28.6374 17.0483 31.8254 15.8064C32.1889 15.6648 33.2751 15.2334 32.9245 15.4046C32.3777 15.6717 30.2711 16.461 30.218 16.4801C22.2596 19.3437 14.0792 21.3337 5.61685 21.8105C5.33536 21.8263 5.04837 21.9006 4.77179 21.8459C4.10396 21.7138 6.06923 21.4265 6.73374 21.2786C12.7791 19.9329 18.8473 19.2696 25.0295 18.9976C29.4494 18.8031 33.8888 18.929 38.2076 17.8866C38.4027 17.8395 37.2814 18.801 37.2798 18.8025C36.4448 19.6538 35.6796 20.634 35.3179 21.7868C35.1828 22.2175 35.143 22.6622 35.1701 23.1106C35.1868 23.3862 35.2301 23.7573 35.3238 23.1578C35.4829 22.1397 35.358 20.9976 35.5779 20.0081C35.6866 19.519 35.9541 21.037 36.3993 21.2668C36.6193 21.3803 36.7202 19.7641 36.9193 19.9785C37.4066 20.5033 37.9584 19.7805 38.0717 19.9844C38.2354 20.2791 38.9552 20.2176 39.1413 19.9549C39.2758 19.765 38.9269 20.0894 38.8872 20.2681C38.8232 20.5562 39.0626 19.679 39.2713 19.4703C39.343 19.3987 39.7258 20.2762 39.9273 19.3699C39.9432 19.2981 40.009 19.6766 40.1223 19.5885C40.2792 19.4665 40.0841 19.429 40.2996 19.6121C40.6449 19.9057 41.0521 19.4017 41.2392 19.1571C41.4349 18.9012 41.1554 19.1686 41.1092 19.423C41.0954 19.499 41.1033 19.0583 41.1033 19.0921C41.1033 19.457 41.0086 19.9456 41.1092 20.2976C41.1205 20.3373 41.2054 19.6046 41.2096 19.4467C41.2167 19.1861 41.5225 19.7774 41.6351 19.8485C41.8074 19.9573 41.8478 19.9124 41.8478 19.7185C41.8478 19.4016 41.8335 19.7067 42.0015 19.7067C42.0598 19.7067 42.0838 19.5285 42.1433 19.4821C42.3775 19.3 42.42 20.009 42.5924 20.2504" stroke="black" stroke-linecap="round"/>
</svg>
