<svg width="40" height="40" viewBox="0 0 40 40" fill="none" xmlns="http://www.w3.org/2000/svg">
<path d="M18.3042 21.6963H32.3222C32.3222 29.4374 26.0447 35.7143 18.3042 35.7143C10.5636 35.7143 4.28613 29.4369 4.28613 21.6963C4.28613 13.9557 10.5636 7.67825 18.3042 7.67825H18.3234L18.3042 21.6963ZM25.5827 9.9209C25.4758 9.81402 25.3343 9.75673 25.1853 9.75673C25.0363 9.75673 24.8948 9.81403 24.788 9.9209C24.5702 10.1386 24.5702 10.4979 24.788 10.7156C25.0057 10.9334 25.361 10.9334 25.5827 10.7156C25.8004 10.4979 25.8004 10.1386 25.5827 9.9209ZM29.9117 14.2499C29.8048 14.143 29.6633 14.0857 29.5143 14.0857C29.3653 14.0857 29.2238 14.143 29.1169 14.2499C28.8992 14.4676 28.8992 14.8269 29.1169 15.0446C29.3347 15.2623 29.6899 15.2623 29.9116 15.0446C30.1294 14.8268 30.1294 14.4676 29.9117 14.2499ZM35.7193 18.3035L21.6971 18.3038L21.7163 4.28577C29.4492 4.29723 35.7153 10.5669 35.7153 18.3038L35.7193 18.3035ZM23.9821 11.5255C24.3144 11.8579 24.7539 12.026 25.1894 12.026C25.6248 12.026 26.0643 11.8579 26.3967 11.5255C27.0613 10.8609 27.0613 9.77564 26.3967 9.1109C26.0758 8.79002 25.644 8.61039 25.1894 8.61039C24.7347 8.61039 24.3029 8.79002 23.9821 9.1109C23.3174 9.77558 23.3174 10.8608 23.9821 11.5255ZM24.9908 15.6557L30.7526 9.89394L29.9426 9.08401L24.1809 14.8458L24.9908 15.6557ZM30.7257 13.4397C30.4048 13.1188 29.9731 12.9392 29.5184 12.9392C29.0637 12.9392 28.632 13.1188 28.3111 13.4397C27.6464 14.1044 27.6464 15.1896 28.3111 15.8543C28.6435 16.1867 29.0829 16.3548 29.5184 16.3548C29.9539 16.3548 30.3934 16.1867 30.7257 15.8543C31.3904 15.1896 31.3904 14.1044 30.7257 13.4397Z" fill="#323740"/>
</svg>
