<svg width="20" height="21" viewBox="0 0 20 21" fill="none" xmlns="http://www.w3.org/2000/svg">
<path d="M4.23521 13.0981C3.21998 13.7124 0.558115 14.9666 2.17937 16.5361C2.97134 17.3028 3.85339 17.8511 4.96234 17.8511H11.2903C12.3992 17.8511 13.2813 17.3028 14.0732 16.5361C15.6945 14.9666 13.0326 13.7124 12.0174 13.0981C9.63672 11.6577 6.6159 11.6577 4.23521 13.0981Z" stroke="#EBE5E0" stroke-width="1.5" stroke-linecap="round" stroke-linejoin="round"/>
<path d="M11.2487 6.18441C11.2487 8.02536 9.75628 9.51774 7.91536 9.51774C6.07441 9.51774 4.58203 8.02536 4.58203 6.18441C4.58203 4.34346 6.07441 2.85107 7.91536 2.85107C9.75628 2.85107 11.2487 4.34346 11.2487 6.18441Z" stroke="#EBE5E0" stroke-width="1.5"/>
<path d="M14.168 4.5177H18.3346" stroke="#EBE5E0" stroke-width="1.5" stroke-linecap="round" stroke-linejoin="round"/>
<path d="M14.168 7.0177H18.3346" stroke="#EBE5E0" stroke-width="1.5" stroke-linecap="round" stroke-linejoin="round"/>
<path d="M16.668 9.5177H18.3346" stroke="#EBE5E0" stroke-width="1.5" stroke-linecap="round" stroke-linejoin="round"/>
</svg>
