<svg width="21" height="20" viewBox="0 0 21 20" fill="none" xmlns="http://www.w3.org/2000/svg">
<rect x="0.335938" width="20" height="20" rx="4" fill="#EBF0EC"/>
<path d="M14.7229 13C15.0976 13 15.3956 12.7643 15.6632 12.4346C16.2109 11.7597 15.3116 11.2204 14.9686 10.9563C14.6199 10.6878 14.2306 10.5357 13.8359 10.5M13.3359 9.5C14.0263 9.5 14.5859 8.94036 14.5859 8.25C14.5859 7.55964 14.0263 7 13.3359 7" fill="#5B8469"/>
<path d="M14.7229 13C15.0976 13 15.3956 12.7643 15.6632 12.4346C16.2109 11.7597 15.3116 11.2204 14.9686 10.9563C14.6199 10.6878 14.2306 10.5357 13.8359 10.5M13.3359 9.5C14.0263 9.5 14.5859 8.94036 14.5859 8.25C14.5859 7.55964 14.0263 7 13.3359 7" stroke="#326543" stroke-linecap="round"/>
<path d="M5.94892 13C5.57427 13 5.27627 12.7643 5.00871 12.4346C4.46098 11.7597 5.36027 11.2204 5.70326 10.9563C6.05192 10.6878 6.44123 10.5357 6.83594 10.5M7.08594 9.5C6.39558 9.5 5.83594 8.94036 5.83594 8.25C5.83594 7.55964 6.39558 7 7.08594 7" fill="#5B8469"/>
<path d="M5.94892 13C5.57427 13 5.27627 12.7643 5.00871 12.4346C4.46098 11.7597 5.36027 11.2204 5.70326 10.9563C6.05192 10.6878 6.44123 10.5357 6.83594 10.5M7.08594 9.5C6.39558 9.5 5.83594 8.94036 5.83594 8.25C5.83594 7.55964 6.39558 7 7.08594 7" stroke="#326543" stroke-linecap="round"/>
<path d="M8.37784 11.5556C7.86695 11.8715 6.52743 12.5165 7.34329 13.3237C7.74183 13.718 8.1857 14 8.74375 14H11.9281C12.4862 14 12.93 13.718 13.3286 13.3237C14.1444 12.5165 12.8049 11.8715 12.294 11.5556C11.096 10.8148 9.57589 10.8148 8.37784 11.5556Z" fill="#5B8469" stroke="#326543" stroke-linecap="round" stroke-linejoin="round"/>
<path d="M12.0859 7.75C12.0859 8.7165 11.3024 9.5 10.3359 9.5C9.36944 9.5 8.58594 8.7165 8.58594 7.75C8.58594 6.7835 9.36944 6 10.3359 6C11.3024 6 12.0859 6.7835 12.0859 7.75Z" fill="#5B8469" stroke="#326543"/>
</svg>
