<svg width="12" height="12" viewBox="0 0 12 12" fill="none" xmlns="http://www.w3.org/2000/svg">
<path d="M9.5 2.5C9.67185 2.5251 9.83885 2.5565 10 2.59372C10.2956 2.662 10.4434 2.69614 10.6205 2.83745C10.7215 2.91805 10.8476 3.07758 10.903 3.19486C11 3.40049 11 3.5999 11 3.99871V9.42995C11 9.9265 10.48 10.2675 10 10.1567C9.54015 10.0505 9.03295 9.9916 8.5 9.9916C7.54145 9.9916 6.66625 10.182 6 10.4958C5.33375 10.8096 4.45853 11 3.5 11C2.96704 11 2.45985 10.9412 2 10.835C1.7044 10.7667 1.5566 10.7325 1.37949 10.5912C1.27848 10.5106 1.15241 10.351 1.09706 10.2338C1 10.0282 1 9.82875 1 9.42995V3.99871C1 3.50216 1.52002 3.16112 2 3.27198C2.16116 3.3092 2.32814 3.34061 2.5 3.3657" fill="#5B8469"/>
<path d="M9.5 2.5C9.67185 2.5251 9.83885 2.5565 10 2.59372C10.2956 2.662 10.4434 2.69614 10.6205 2.83745C10.7215 2.91805 10.8476 3.07758 10.903 3.19486C11 3.40049 11 3.5999 11 3.99871V9.42995C11 9.9265 10.48 10.2676 10 10.1567C9.54015 10.0505 9.03295 9.9916 8.5 9.9916C7.54145 9.9916 6.66625 10.182 6 10.4958C5.33375 10.8096 4.45854 11 3.5 11C2.96704 11 2.45985 10.9412 2 10.835C1.7044 10.7667 1.5566 10.7325 1.37949 10.5912C1.27848 10.5106 1.15241 10.351 1.09706 10.2338C1 10.0281 1 9.82875 1 9.42995V3.99871C1 3.50216 1.52002 3.16112 2 3.27198C2.16116 3.3092 2.32813 3.34061 2.5 3.3657" stroke="#326543" stroke-linecap="round"/>
<path d="M7.25 6.75C7.25 7.44035 6.69035 8 6 8C5.30965 8 4.75 7.44035 4.75 6.75C4.75 6.05965 5.30965 5.5 6 5.5C6.69035 5.5 7.25 6.05965 7.25 6.75Z" fill="#5B8469" stroke="white"/>
<path d="M2.75 7.25V7.2545V7.25Z" fill="#326543"/>
<path d="M2.75 7.25V7.2545" stroke="white" stroke-width="2" stroke-linecap="round" stroke-linejoin="round"/>
<path d="M9.25 6.24609V6.25059V6.24609Z" fill="#326543"/>
<path d="M9.25 6.24609V6.25059" stroke="white" stroke-width="2" stroke-linecap="round" stroke-linejoin="round"/>
<path d="M6 1V3V1ZM4 2.5V3.5V2.5ZM8 1.5V2.5V1.5Z" fill="#326543"/>
<path d="M6 1V3M4 2.5V3.5M8 1.5V2.5" stroke="#326543" stroke-width="1.5" stroke-linecap="round"/>
</svg>
