<svg width="21" height="20" viewBox="0 0 21 20" fill="none" xmlns="http://www.w3.org/2000/svg">
<rect x="0.667969" width="20" height="20" rx="4" fill="#EBF0EC"/>
<path d="M5.84366 10.6068C5.66715 9.4581 5.5789 8.88382 5.79605 8.37469C6.0132 7.86556 6.49498 7.51722 7.45854 6.82053L8.17846 6.3C9.37711 5.43333 9.97642 5 10.668 5C11.3595 5 11.9588 5.43333 13.1575 6.3L13.8774 6.82053C14.841 7.51722 15.3227 7.86556 15.5399 8.37469C15.757 8.88382 15.6688 9.4581 15.4923 10.6068L15.3418 11.5862C15.0915 13.2144 14.9664 14.0286 14.3825 14.5143C13.7985 15 12.9448 15 11.2374 15H10.0986C8.39113 15 7.53742 15 6.95347 14.5143C6.36951 14.0286 6.2444 13.2144 5.99418 11.5862L5.84366 10.6068Z" fill="#5B8469" stroke="#326543" stroke-linejoin="round"/>
<path d="M9.66797 13H11.668" stroke="white" stroke-linecap="round" stroke-linejoin="round"/>
</svg>
