<svg width="13" height="12" viewBox="0 0 13 12" fill="none" xmlns="http://www.w3.org/2000/svg">
<path d="M1.75 9C1.75 8.2298 1.75 7.84465 1.92336 7.56175C2.02037 7.40345 2.15346 7.27035 2.31176 7.17335C2.59467 7 2.97978 7 3.75 7C4.52022 7 4.90533 7 5.18823 7.17335C5.34653 7.27035 5.47963 7.40345 5.57663 7.56175C5.75 7.84465 5.75 8.2298 5.75 9C5.75 9.7702 5.75 10.1553 5.57663 10.4382C5.47963 10.5965 5.34653 10.7296 5.18823 10.8266C4.90533 11 4.52022 11 3.75 11C2.97978 11 2.59467 11 2.31176 10.8266C2.15346 10.7296 2.02037 10.5965 1.92336 10.4382C1.75 10.1553 1.75 9.7702 1.75 9Z" fill="#5B8469" stroke="#326543"/>
<path d="M7.75 9C7.75 8.2298 7.75 7.84465 7.92335 7.56175C8.02035 7.40345 8.15345 7.27035 8.31175 7.17335C8.59465 7 8.9798 7 9.75 7C10.5202 7 10.9053 7 11.1882 7.17335C11.3465 7.27035 11.4796 7.40345 11.5766 7.56175C11.75 7.84465 11.75 8.2298 11.75 9C11.75 9.7702 11.75 10.1553 11.5766 10.4382C11.4796 10.5965 11.3465 10.7296 11.1882 10.8266C10.9053 11 10.5202 11 9.75 11C8.9798 11 8.59465 11 8.31175 10.8266C8.15345 10.7296 8.02035 10.5965 7.92335 10.4382C7.75 10.1553 7.75 9.7702 7.75 9Z" fill="#5B8469" stroke="#326543"/>
<path d="M1.75 3C1.75 2.22978 1.75 1.84467 1.92336 1.56176C2.02037 1.40346 2.15346 1.27037 2.31176 1.17336C2.59467 1 2.97978 1 3.75 1C4.52022 1 4.90533 1 5.18823 1.17336C5.34653 1.27037 5.47963 1.40346 5.57663 1.56176C5.75 1.84467 5.75 2.22978 5.75 3C5.75 3.77022 5.75 4.15533 5.57663 4.43823C5.47963 4.59653 5.34653 4.72963 5.18823 4.82663C4.90533 5 4.52022 5 3.75 5C2.97978 5 2.59467 5 2.31176 4.82663C2.15346 4.72963 2.02037 4.59653 1.92336 4.43823C1.75 4.15533 1.75 3.77022 1.75 3Z" fill="#5B8469" stroke="#326543"/>
<path d="M7.75 3C7.75 2.22978 7.75 1.84467 7.92335 1.56176C8.02035 1.40346 8.15345 1.27037 8.31175 1.17336C8.59465 1 8.9798 1 9.75 1C10.5202 1 10.9053 1 11.1882 1.17336C11.3465 1.27037 11.4796 1.40346 11.5766 1.56176C11.75 1.84467 11.75 2.22978 11.75 3C11.75 3.77022 11.75 4.15533 11.5766 4.43823C11.4796 4.59653 11.3465 4.72963 11.1882 4.82663C10.9053 5 10.5202 5 9.75 5C8.9798 5 8.59465 5 8.31175 4.82663C8.15345 4.72963 8.02035 4.59653 7.92335 4.43823C7.75 4.15533 7.75 3.77022 7.75 3Z" fill="#5B8469" stroke="#326543"/>
</svg>
