            <svg width="20" height="20" viewBox="0 0 42 42" fill="none" xmlns="http://www.w3.org/2000/svg">
<path fill-rule="evenodd" clip-rule="evenodd" d="M34.9271 35.7854C36.9459 33.8885 38.5541 31.5977 39.6524 29.0546C40.7507 26.5115 41.3157 23.7701 41.3125 21C41.3125 9.78125 32.2188 0.6875 21 0.6875C9.78126 0.6875 0.687514 9.78125 0.687514 21C0.684308 23.7701 1.24932 26.5115 2.34762 29.0546C3.44592 31.5977 5.05416 33.8885 7.07293 35.7854C10.8374 39.3414 15.8216 41.3195 21 41.3125C26.1785 41.3195 31.1626 39.3414 34.9271 35.7854ZM8.8021 33.1083C10.2648 31.2784 12.1209 29.8015 14.2326 28.7873C16.3443 27.7731 18.6574 27.2477 21 27.25C23.3427 27.2477 25.6557 27.7731 27.7674 28.7873C29.8792 29.8015 31.7353 31.2784 33.1979 33.1083C31.6021 34.7202 29.7022 35.9992 27.6083 36.8711C25.5144 37.743 23.2682 38.1904 21 38.1875C18.7318 38.1904 16.4856 37.743 14.3917 36.8711C12.2978 35.9992 10.3979 34.7202 8.8021 33.1083ZM28.8125 14.75C28.8125 16.822 27.9894 18.8091 26.5243 20.2743C25.0592 21.7394 23.072 22.5625 21 22.5625C18.928 22.5625 16.9409 21.7394 15.4757 20.2743C14.0106 18.8091 13.1875 16.822 13.1875 14.75C13.1875 12.678 14.0106 10.6909 15.4757 9.22573C16.9409 7.7606 18.928 6.9375 21 6.9375C23.072 6.9375 25.0592 7.7606 26.5243 9.22573C27.9894 10.6909 28.8125 12.678 28.8125 14.75Z" fill="#D6D0CC"/>
</svg>