<svg width="40" height="40" viewBox="0 0 40 40" fill="none" xmlns="http://www.w3.org/2000/svg">
<rect width="40" height="40" rx="8" fill="#6A9AEB"/>
<path d="M21.6666 20.0002C21.6666 20.9206 20.9204 21.6668 20 21.6668C19.0795 21.6668 18.3333 20.9206 18.3333 20.0002C18.3333 19.0797 19.0795 18.3335 20 18.3335C20.9204 18.3335 21.6666 19.0797 21.6666 20.0002Z" stroke="white" stroke-width="1.5"/>
<path d="M24.6666 19.4281C24.4499 19.3967 24.2273 19.3729 24 19.3569M16 20.644C15.7726 20.6281 15.5501 20.6042 15.3333 20.5728" stroke="white" stroke-width="1.5" stroke-linecap="round" stroke-linejoin="round"/>
<path d="M20 24.9997C19.1117 25.4146 17.9447 25.6663 16.6667 25.6663C15.9561 25.6663 15.2798 25.5885 14.6667 25.4481C13.6664 25.2189 13.3333 24.6173 13.3333 23.5903V16.409C13.3333 15.7524 14.0267 15.3015 14.6667 15.4481C15.2798 15.5885 15.9561 15.6663 16.6667 15.6663C17.9447 15.6663 19.1117 15.4146 20 14.9997C20.8883 14.5848 22.0553 14.333 23.3333 14.333C24.0439 14.333 24.7202 14.4108 25.3333 14.5513C26.3878 14.7928 26.6667 15.4132 26.6667 16.409V23.5903C26.6667 24.2469 25.9733 24.6979 25.3333 24.5513C24.7202 24.4108 24.0439 24.333 23.3333 24.333C22.0553 24.333 20.8883 24.5847 20 24.9997Z" stroke="white" stroke-width="1.5"/>
</svg>
