            <svg width="20" height="20" viewBox="0 0 20 20" fill="none" xmlns="http://www.w3.org/2000/svg">
<path d="M2.08301 10.2027C2.08301 6.57162 2.08301 4.75607 3.12644 3.62803C4.16987 2.5 5.84925 2.5 9.20801 2.5H10.7913C14.1501 2.5 15.8295 2.5 16.8729 3.62803C17.9163 4.75607 17.9163 6.57162 17.9163 10.2027V10.6307C17.9163 14.2618 17.9163 16.0773 16.8729 17.2053C15.8295 18.3333 14.1501 18.3333 10.7913 18.3333H9.20801C5.84925 18.3333 4.16987 18.3333 3.12644 17.2053C2.08301 16.0773 2.08301 14.2618 2.08301 10.6307V10.2027Z" stroke="#D0D5DD" stroke-width="1.5" stroke-linecap="round" stroke-linejoin="round"/>
<path d="M2.5 6.66675H17.5" stroke="#D0D5DD" stroke-width="1.5" stroke-linecap="round" stroke-linejoin="round"/>
<path d="M2.91699 6.66675H17.0837" stroke="#D0D5DD" stroke-width="1.5" stroke-linecap="round" stroke-linejoin="round"/>
<path d="M9.99658 10.8333H10.0041M9.99658 14.1666H10.0041M13.3262 10.8333H13.3337M6.66699 10.8333H6.67447M6.66699 14.1666H6.67447" stroke="#D0D5DD" stroke-width="2" stroke-linecap="round" stroke-linejoin="round"/>
<path d="M15 1.66675V3.33341M5 1.66675V3.33341" stroke="#D0D5DD" stroke-width="1.5" stroke-linecap="round" stroke-linejoin="round"/>
</svg>