<svg width="142" height="54" viewBox="0 0 142 54" fill="none" xmlns="http://www.w3.org/2000/svg">
<path d="M135.708 23.8868C135.652 24.0474 135.345 24.9374 134.786 26.5569C134.227 28.1767 133.867 29.2848 133.707 29.8814L131.533 23.8868H129.427L132.752 32.0026C132.571 32.5189 132.471 32.8023 132.451 32.8523C132.27 33.3137 132.042 33.6347 131.766 33.8152C131.49 33.9957 131.124 34.0859 130.668 34.0859C130.312 34.0859 130.019 34.0735 129.788 34.0484L129.886 35.5752C130.226 35.6141 130.567 35.6342 130.909 35.6353C131.761 35.6353 132.458 35.4361 133 35.0374C133.541 34.6387 133.99 33.9756 134.346 33.048C134.366 32.9978 135.522 29.9442 137.814 23.8868H135.708ZM126.286 25.1504L126.03 23.8868H124.376V32.153H126.346V27.6701C126.346 26.9832 126.525 26.4468 126.884 26.0605C127.242 25.6744 127.785 25.4813 128.512 25.4813C128.728 25.4813 128.936 25.4964 129.137 25.5265L129.167 23.8793C129.031 23.8593 128.856 23.8493 128.64 23.8493C127.612 23.8493 126.828 24.283 126.286 25.1504ZM122.168 30.7614C121.681 30.7614 121.348 30.6287 121.167 30.3629C120.987 30.0971 120.897 29.651 120.897 29.024V25.0827H122.95V23.8868H120.897L120.64 21.6378L119.437 21.6454L119.061 23.8868L117.647 24.0147L117.572 25.0827H118.926V28.9863C118.926 29.5581 118.97 30.0383 119.058 30.4268C119.145 30.8154 119.295 31.1525 119.505 31.4384C119.716 31.7242 120.008 31.9337 120.381 32.0665C120.755 32.1992 121.223 32.2657 121.784 32.2657C121.925 32.2657 122.075 32.2583 122.236 32.2432C122.368 32.2317 122.499 32.2155 122.63 32.1944C122.733 32.1767 122.841 32.1567 122.954 32.1341C123.067 32.1116 123.128 32.1003 123.138 32.1003L123.085 30.6862C122.759 30.7364 122.454 30.7614 122.168 30.7614ZM113.815 23.6836C112.787 23.6836 111.852 24.1 111.01 24.9322L110.792 23.8868H109.204V32.153H111.175V28.129C111.175 27.3166 111.223 26.7149 111.318 26.3238C111.478 25.9929 111.735 25.7183 112.089 25.5001C112.442 25.2821 112.832 25.1729 113.258 25.1729C113.805 25.1729 114.184 25.3384 114.394 25.6694C114.605 26.0004 114.713 26.4994 114.718 27.1662V32.153H116.696V26.9255C116.696 25.8726 116.456 25.069 115.978 24.5148C115.499 23.9607 114.778 23.6836 113.815 23.6836ZM105.59 29.0691C105.59 29.691 105.464 30.1385 105.21 30.4117C104.957 30.6851 104.555 30.8216 104.003 30.8216C103.441 30.8216 103.032 30.6839 102.773 30.408C102.515 30.1323 102.386 29.6859 102.386 29.0691V23.8868H100.408V29.1444C100.408 30.1824 100.735 30.9697 101.389 31.5062C102.044 32.0427 102.907 32.3108 103.981 32.3108C105.054 32.3108 105.919 32.0413 106.576 31.5023C107.232 30.9633 107.561 30.1774 107.561 29.1444V23.8868H105.59V29.0691ZM96.6808 30.0845C96.3448 30.571 95.8433 30.8141 95.1765 30.8141C94.5046 30.8141 93.9981 30.571 93.6571 30.0845C93.3161 29.5982 93.1457 28.9037 93.1457 28.001C93.1457 27.0835 93.3149 26.3828 93.6534 25.8988C93.9919 25.415 94.4945 25.1729 95.1614 25.1729C95.8385 25.1729 96.3448 25.4136 96.6808 25.8951C97.0167 26.3764 97.1848 27.0759 97.1848 27.9936C97.1848 28.9012 97.0167 29.5982 96.6808 30.0845ZM95.2066 23.6836C93.9279 23.6836 92.9376 24.0687 92.2356 24.8383C91.5335 25.608 91.1826 26.6599 91.1826 27.9936C91.1826 29.2872 91.5335 30.3302 92.2356 31.1224C92.9376 31.9148 93.9004 32.3108 95.1239 32.3108C96.3975 32.3108 97.3879 31.921 98.0949 31.1413C98.802 30.3616 99.1554 29.3124 99.1554 27.9936C99.1554 26.6899 98.8057 25.6457 98.1062 24.8609C97.4067 24.0761 96.4401 23.6836 95.2066 23.6836ZM87.6224 22.6233C88.4898 22.6233 89.3523 22.8864 90.2098 23.4129L90.849 21.871C89.9565 21.2743 88.8659 20.976 87.5772 20.976C85.9827 20.976 84.6928 21.4888 83.7075 22.5141C82.7221 23.5396 82.2296 24.8998 82.2296 26.5946C82.2296 28.3797 82.7007 29.7787 83.6435 30.7915C84.5861 31.8044 85.8623 32.3108 87.4719 32.3108C88.7404 32.3108 89.7961 32.0603 90.6384 31.5588L90.3677 29.9642C89.4601 30.4255 88.5449 30.6561 87.6224 30.6561C86.5693 30.6561 85.7583 30.3077 85.1892 29.6106C84.6201 28.9138 84.3355 27.9285 84.3355 26.6547C84.3355 25.4263 84.63 24.4472 85.2193 23.7176C85.8084 22.988 86.6095 22.6233 87.6224 22.6233ZM81.745 23.8868H79.3982C79.2478 24.0423 78.9255 24.3707 78.4316 24.8721C77.9377 25.3736 77.5291 25.7974 77.2057 26.1433C76.8978 26.4718 76.5981 26.8078 76.3069 27.1511C76.2968 27.1612 76.243 27.2139 76.1452 27.3091L75.991 27.4595L76.0361 25.7898V21.134H74.0655V32.153H76.0361V29.0465L76.856 28.3997L79.5787 32.153H81.963L78.3453 27.407L81.745 23.8868ZM70.6175 25.1805C71.2042 25.1805 71.8383 25.3585 72.5203 25.7146L72.9867 24.3081C72.3198 23.8919 71.5024 23.6836 70.5346 23.6836C69.3262 23.6836 68.3521 24.0574 67.6127 24.8045C66.8729 25.5516 66.5032 26.602 66.5032 27.9559C66.5032 29.3549 66.8554 30.4305 67.56 31.1826C68.2645 31.9348 69.2485 32.3108 70.5122 32.3108C71.0236 32.3108 71.4648 32.2608 71.836 32.1604C72.2071 32.0602 72.5656 31.8948 72.9115 31.6641L72.7234 30.1673C72.0565 30.5936 71.3621 30.8065 70.6399 30.8065C69.948 30.8065 69.4127 30.5659 69.0342 30.0845C68.6555 29.6032 68.4664 28.9012 68.4664 27.9786C68.4664 27.066 68.658 26.3716 69.0417 25.8951C69.4253 25.4187 69.9505 25.1805 70.6175 25.1805ZM63.3485 29.7911C63.203 30.1022 62.9611 30.3666 62.6226 30.5846C62.2843 30.8028 61.8867 30.9118 61.4306 30.9118C61.0495 30.9118 60.7561 30.8178 60.5504 30.6297C60.3448 30.4418 60.2422 30.1723 60.2422 29.8212C60.2422 29.3098 60.4275 28.9389 60.7987 28.7081C61.1698 28.4776 61.7539 28.3271 62.5511 28.2567C62.5711 28.2567 62.7054 28.2468 62.9535 28.2267C63.2018 28.2068 63.3335 28.1966 63.3485 28.1966V29.7911ZM62.13 23.6836C60.9967 23.6836 59.9437 23.8919 58.9709 24.3081C58.9759 24.3182 59.0585 24.5438 59.2192 24.985C59.3795 25.4263 59.4623 25.6544 59.4673 25.6694C60.4552 25.2932 61.285 25.1053 61.9571 25.1053C62.4283 25.1053 62.7794 25.2194 63.01 25.4475C63.2406 25.6758 63.3561 26.0405 63.3561 26.5418V26.9781C63.2255 26.9931 63.0477 27.0108 62.8219 27.0308C62.5963 27.0509 62.3933 27.0709 62.2128 27.0909C62.0323 27.1111 61.8642 27.1311 61.7088 27.1511C60.5756 27.2615 59.7281 27.5234 59.1665 27.9371C58.605 28.3509 58.3241 28.9863 58.3241 29.8439C58.3241 30.6411 58.5611 31.2517 59.0348 31.6754C59.5089 32.0992 60.1293 32.3108 60.8964 32.3108C61.4581 32.3108 61.9357 32.2169 62.3294 32.0288C62.7229 31.8408 63.1254 31.5462 63.5366 31.145C63.5366 31.1652 63.5892 31.333 63.6945 31.649C63.7997 31.9649 63.8548 32.133 63.8599 32.153H65.3191V26.76C65.3191 25.677 65.0659 24.8935 64.5594 24.4095C64.053 23.9257 63.2432 23.6836 62.13 23.6836ZM56.6272 30.7614C56.1206 30.7614 55.7798 30.6297 55.6043 30.3666C55.4287 30.1033 55.3411 29.6007 55.3411 28.8586V21.134H53.3705V28.8961C53.3705 29.4929 53.413 29.9918 53.4983 30.393C53.5834 30.7941 53.7338 31.1401 53.9495 31.431C54.1651 31.7217 54.4597 31.9337 54.8332 32.0665C55.2068 32.1992 55.677 32.2657 56.2436 32.2657C56.3839 32.2657 56.537 32.257 56.7024 32.2395C56.8679 32.2218 57.0044 32.2043 57.1123 32.1868C57.2201 32.1691 57.3329 32.148 57.4508 32.1229C57.5686 32.0978 57.6301 32.0852 57.6352 32.0852L57.5824 30.6788C57.1963 30.734 56.8778 30.7614 56.6272 30.7614ZM47.9825 30.6788H46.2149V27.106H47.9298C48.7471 27.106 49.3514 27.2414 49.7425 27.5123C50.1338 27.783 50.3293 28.2267 50.3293 28.8435C50.3293 30.067 49.547 30.6788 47.9825 30.6788ZM46.2149 22.6307H47.5463C48.3936 22.6307 49.0117 22.7387 49.4003 22.9542C49.7889 23.1699 49.9832 23.5659 49.9832 24.1426C49.9832 25.1706 49.3088 25.6845 47.9599 25.6845H46.2149V22.6307ZM50.3067 26.2711C50.5824 26.186 50.823 26.0669 51.0287 25.9138C51.2343 25.7609 51.3946 25.6043 51.5101 25.4437C51.6278 25.2785 51.7215 25.0975 51.7883 24.906C51.8586 24.708 51.9037 24.5312 51.9237 24.3757C51.9439 24.2203 51.9539 24.0625 51.9539 23.9018C51.9539 22.9091 51.5953 22.1995 50.8782 21.7734C50.1612 21.3471 49.0731 21.134 47.6139 21.134H44.1767V32.153H48.2609C49.5594 32.153 50.5762 31.8798 51.3107 31.333C52.0453 30.7867 52.4126 29.9943 52.4126 28.9563C52.4126 28.2693 52.2321 27.6915 51.8711 27.2226C51.5101 26.7538 50.9885 26.4366 50.3067 26.2711ZM8.16556 42.2194C8.16556 41.5779 9.52861 41.2789 10.4499 41.2789C10.7112 41.2789 11.1499 41.3315 11.1499 41.683C11.1499 42.3707 9.7319 42.746 9.0034 42.746C8.61681 42.746 8.16556 42.608 8.16556 42.2194ZM11.6127 41.683C11.6127 41.2638 11.3072 40.816 10.4499 40.816C9.49961 40.816 7.70253 41.1094 7.70253 42.2194C7.70253 42.8113 8.22542 43.2089 9.0034 43.2089C9.91318 43.2089 11.6127 42.7613 11.6127 41.683ZM5.20501 46.3681C6.38957 46.7931 8.18603 47.234 10.5424 47.234C14.2545 47.234 19.1895 46.7974 19.1895 43.0234C19.1895 41.5803 18.2839 40.9425 17.5562 40.43C16.9162 39.9793 16.5219 39.6721 16.4814 39.0605C16.4547 38.6573 16.6445 38.2917 16.8646 37.8685C17.1113 37.3938 17.3909 36.8559 17.3909 36.1756C17.3909 35.2523 16.7061 34.2585 15.2027 34.2585C14.0082 34.2585 12.9063 34.7256 11.7399 35.2202C10.2398 35.8563 8.53913 36.5774 6.13604 36.5774C5.80404 36.5774 5.49468 36.5547 5.20501 36.5144V33.9712C5.75534 34.0395 6.30936 34.0739 6.86392 34.074C9.73904 34.074 11.7546 33.1045 13.5329 32.2491C15.0476 31.5205 16.4783 30.8324 18.227 30.8324C20.6442 30.8324 21.9088 32.2018 21.9088 33.5545C21.9088 34.4632 21.4374 35.0166 20.9384 35.6023C20.4241 36.2058 19.8924 36.83 19.8924 37.8423C19.8924 38.8138 20.274 39.3359 20.6431 39.8408C21.0739 40.43 21.5194 41.0396 21.5194 42.4873C21.5194 45.25 18.904 46.9601 16.3553 47.9707H5.20501V46.3681ZM5.20501 44.0929C6.3465 44.5041 7.55053 44.7146 8.76382 44.7152C10.8637 44.7152 14.3866 44.2518 14.3866 41.1491C14.3866 40.2364 13.6536 38.9507 12.0238 38.9507C10.9267 38.9507 10.0622 39.2391 9.22623 39.5181C8.37584 39.8017 7.57274 40.0697 6.51937 40.0697C6.05928 40.0697 5.61842 39.9904 5.20501 39.8644V37.5416C5.51402 37.5779 5.82491 37.5959 6.13604 37.5957C8.7463 37.5957 10.6265 36.7985 12.1373 36.1579C13.2523 35.6851 14.2151 35.2768 15.2027 35.2768C16.065 35.2768 16.3724 35.7411 16.3724 36.1756C16.3724 36.607 16.1725 36.9916 15.9608 37.3989C15.7071 37.8871 15.4196 38.4404 15.4651 39.1279C15.54 40.2556 16.2995 40.7906 16.9695 41.2626C17.6408 41.7354 18.171 42.1087 18.171 43.0234C18.171 44.3937 17.3802 46.2155 10.5424 46.2155C8.08338 46.2155 6.27203 45.6968 5.20501 45.2745V44.0929ZM5.20501 40.3506C5.62106 40.4648 6.06083 40.5327 6.51937 40.5327C7.64795 40.5327 8.52486 40.2401 9.37277 39.9572C10.2106 39.6777 11.0018 39.4137 12.0238 39.4137C13.4593 39.4137 13.9237 40.5829 13.9237 41.1491C13.9237 43.1792 12.1395 44.2523 8.76382 44.2523C7.3175 44.2523 6.09184 43.9301 5.20501 43.5934V40.3506ZM5.20501 31.5081C5.62242 31.6009 6.04865 31.6483 6.47625 31.6495C9.1811 31.6495 11.2604 30.5166 13.4618 29.3173C15.6817 28.1077 17.9773 26.8571 21.0047 26.8571C22.4064 26.8571 23.6007 27.2624 24.4582 28.0294C25.291 28.7741 25.7312 29.7888 25.7312 30.9639C25.7312 32.1969 24.9742 33.3064 24.1728 34.4809C23.3019 35.7575 22.4011 37.0775 22.4011 38.6789C22.4011 42.0714 25.1503 44.0569 29.9625 44.1649V45.3845C29.9418 45.3862 29.9215 45.3907 29.9021 45.398C26.4118 46.745 24.156 44.3412 24.0549 44.2286C24.0331 44.1982 24.0043 44.1735 23.9708 44.1566C23.9374 44.1398 23.9004 44.1313 23.8629 44.1319C23.8255 44.1325 23.7888 44.1422 23.7559 44.1601C23.723 44.178 23.695 44.2037 23.6742 44.2348C23.6477 44.2753 23.6348 44.3232 23.6375 44.3716H23.6358C23.6358 44.3779 23.6189 45.0348 23.0431 46.0027C22.7278 46.5329 22.1969 47.2268 21.3142 47.9707H17.5407C18.0746 47.7182 18.6471 47.4084 19.1938 47.0356C21.0441 45.7737 21.9823 44.2435 21.9823 42.4873C21.9823 40.8884 21.4693 40.1867 21.0168 39.5676C20.6619 39.082 20.3553 38.6626 20.3553 37.8423C20.3553 37.0004 20.8097 36.4671 21.2907 35.9025C21.8221 35.2788 22.3716 34.6338 22.3716 33.5545C22.3716 31.9717 20.948 30.3694 18.227 30.3694C16.3727 30.3694 14.8958 31.0798 13.3323 31.8318C11.5138 32.7066 9.63344 33.6109 6.86392 33.6109C6.23559 33.6109 5.67068 33.5636 5.20501 33.5032V31.5081ZM5.20501 27.1865C5.73689 27.552 6.52541 27.8635 7.6723 27.8635C10.2526 27.8635 12.18 26.712 14.2205 25.4927C16.2942 24.2537 18.4385 22.9725 21.3749 22.9725C24.0329 22.9725 26.3301 23.9083 28.2024 25.7538C29.0819 26.6208 29.6553 27.4958 29.9625 28.0319V30.8116C29.9573 30.828 29.9531 30.8446 29.9497 30.8614C29.8403 31.3924 28.9977 32.0781 28.1056 32.804C26.4084 34.185 24.296 35.9036 24.3058 38.5867C24.3098 39.7153 24.7873 40.734 25.6157 41.3815C26.3884 41.9854 27.3414 42.1874 28.2706 42.1874C28.862 42.1873 29.4432 42.1051 29.9625 41.9931V43.7021C25.4445 43.5973 22.8641 41.7799 22.8641 38.6789C22.8641 37.2204 23.7238 35.9604 24.5552 34.7418C25.3609 33.5608 26.1941 32.3397 26.1941 30.9639C26.1941 28.2733 24.06 26.3941 21.0047 26.3941C17.8593 26.3941 15.5113 27.6734 13.2403 28.9108C11.0922 30.0811 9.0631 31.1864 6.47625 31.1864C6.02485 31.1864 5.59764 31.126 5.20501 31.0326V27.1865ZM5.20501 6.02931H29.9625V27.1534C29.5461 26.5361 29.0698 25.9613 28.5407 25.4373C27.1902 24.1017 24.8509 22.5096 21.3749 22.5096C18.3107 22.5096 16.1106 23.824 13.9831 25.0954C11.999 26.2809 10.1248 27.4006 7.6723 27.4006C6.66621 27.4006 5.85118 27.1432 5.24982 26.6355C5.23432 26.6225 5.21989 26.6093 5.20501 26.5961V6.02931ZM29.9625 34.4277C29.6639 34.6741 29.3764 34.8964 29.0983 35.1114C27.8961 36.0402 26.9466 36.774 26.9466 38.1367C26.9466 38.7628 27.1854 39.2475 27.6368 39.5384C28 39.7724 28.4585 39.8602 28.9219 39.8602C29.2801 39.8602 29.6406 39.8074 29.9625 39.7294V40.9484C28.3399 41.34 27.0538 41.213 26.2429 40.5791C25.662 40.125 25.3271 39.3974 25.3243 38.583C25.3162 36.3865 27.1395 34.9028 28.7483 33.5939C29.1922 33.2327 29.6101 32.8919 29.9625 32.5541V34.4277ZM29.9625 39.2508C29.2933 39.4299 28.4154 39.4891 27.8876 39.1493C27.566 38.942 27.4096 38.6108 27.4096 38.1367C27.4096 37.0013 28.2366 36.3621 29.3813 35.4776C29.5763 35.3277 29.77 35.1762 29.9625 35.0231V39.2508ZM29.9625 47.9707H22.0182C23.4196 46.6653 23.8777 45.4822 24.0259 44.8385C24.3291 45.101 24.8344 45.476 25.5273 45.78C26.5058 46.2094 28.0631 46.5672 29.9625 45.8692V47.9707ZM4.18652 48.989H30.9809V5.01083H4.18652V48.989Z" fill="white"/>
</svg>